<svg width="600" height="529" viewBox="0 0 600 529" fill="none" xmlns="http://www.w3.org/2000/svg">
  <path d="M135.608 158.178C137.937 158.178 139.826 156.289 139.826 153.96C139.826 151.631 137.937 149.742 135.608 149.742C133.279 149.742 131.391 151.631 131.391 153.96C131.391 156.289 133.279 158.178 135.608 158.178Z" fill="#00D8FF"/>
  <path fill-rule="evenodd" clip-rule="evenodd" d="M135.607 145.385C141.27 145.385 146.53 146.198 150.497 147.563C155.276 149.208 158.214 151.702 158.214 153.96C158.214 156.313 155.1 158.963 149.968 160.663C146.088 161.948 140.983 162.619 135.607 162.619C130.096 162.619 124.877 161.989 120.954 160.649C115.99 158.952 113 156.268 113 153.96C113 151.72 115.805 149.246 120.517 147.603C124.498 146.215 129.889 145.385 135.606 145.385H135.607Z" stroke="#00D8FF" stroke-width="1.66272"/>
  <path fill-rule="evenodd" clip-rule="evenodd" d="M128.145 149.698C130.974 144.793 134.306 140.642 137.47 137.888C141.283 134.57 144.911 133.27 146.867 134.398C148.905 135.574 149.645 139.595 148.554 144.89C147.73 148.893 145.76 153.651 143.075 158.308C140.321 163.082 137.169 167.288 134.047 170.016C130.098 173.469 126.279 174.718 124.28 173.565C122.339 172.447 121.597 168.78 122.528 163.877C123.315 159.735 125.288 154.651 128.144 149.698L128.145 149.698Z" stroke="#00D8FF" stroke-width="1.66272"/>
  <path fill-rule="evenodd" clip-rule="evenodd" d="M128.152 158.319C125.315 153.42 123.384 148.459 122.577 144.342C121.607 139.382 122.293 135.59 124.247 134.459C126.284 133.28 130.137 134.647 134.179 138.237C137.236 140.95 140.374 145.033 143.067 149.685C145.829 154.454 147.898 159.286 148.703 163.353C149.722 168.499 148.897 172.431 146.9 173.588C144.961 174.71 141.414 173.522 137.632 170.267C134.436 167.517 131.017 163.268 128.152 158.319V158.319Z" stroke="#00D8FF" stroke-width="1.66272"/>
  <path d="M4.4201 387.972L22.6657 398L41.0052 387.836L44.424 359.482L22.6426 352L1 359.617L4.4201 387.972Z" fill="#B3B3B3"/>
  <path d="M22.5898 395.604L39.0768 386.479L42.2629 361.12L22.5898 354.412V395.604Z" fill="#A6120D"/>
  <path d="M22.5929 395.605V354.412L3.42969 361.242L6.36034 386.601L22.5929 395.605Z" fill="#DD1B16"/>
  <path d="M28.0036 376.341L22.5883 378.873H16.8806L14.1975 385.584L9.20703 385.676L22.5883 355.908L28.0036 376.341ZM27.4801 375.066L22.6241 365.452L18.641 374.9H22.588L27.4801 375.066Z" fill="#F2F2F2"/>
  <path d="M27.1453 374.906H22.6L22.5898 378.865L28.8749 378.871L31.8124 385.675L36.5875 385.764L22.5898 355.906L22.6257 365.451L27.1453 374.906Z" fill="#B3B3B3"/>
  <path d="M577.739 354C577.2 354 576.676 354.111 576.212 354.374L561.528 362.854C560.578 363.401 560 364.435 560 365.536V382.464C560 383.564 560.578 384.596 561.528 385.145L565.363 387.359C567.226 388.277 567.913 388.263 568.761 388.263C571.519 388.263 573.094 386.589 573.094 383.68V366.969C573.094 366.733 572.89 366.564 572.658 366.564H570.818C570.583 366.564 570.382 366.733 570.382 366.969V383.68C570.382 384.969 569.039 386.266 566.859 385.176L562.868 382.838C562.727 382.762 562.619 382.626 562.619 382.464V365.535C562.619 365.375 562.726 365.211 562.868 365.13L577.521 356.682C577.587 356.643 577.663 356.623 577.739 356.623C577.816 356.623 577.891 356.643 577.958 356.682L592.611 365.13C592.75 365.214 592.86 365.37 592.86 365.536V382.465C592.86 382.626 592.779 382.792 592.642 382.87L577.958 391.319C577.832 391.394 577.659 391.394 577.521 391.319L573.749 389.074C573.691 389.043 573.627 389.027 573.562 389.027C573.497 389.027 573.432 389.043 573.375 389.074C572.334 389.664 572.138 389.733 571.161 390.072C570.921 390.156 570.555 390.286 571.286 390.696L576.212 393.594C576.676 393.862 577.203 394.002 577.74 394C578.276 394.003 578.803 393.863 579.267 393.595L593.951 385.146C594.902 384.593 595.479 383.564 595.479 382.465V365.536C595.479 364.436 594.902 363.404 593.951 362.855L579.267 354.375C578.807 354.112 578.279 354 577.74 354L577.739 354Z" fill="#83CD29"/>
  <path d="M581.666 366.098C577.485 366.098 574.995 367.878 574.995 370.837C574.995 374.047 577.466 374.93 581.48 375.327C586.281 375.797 586.655 376.502 586.655 377.447C586.655 379.086 585.348 379.785 582.259 379.785C578.378 379.785 577.525 378.816 577.24 376.886C577.206 376.678 577.046 376.511 576.834 376.511H574.932C574.698 376.511 574.496 376.713 574.496 376.948C574.496 379.419 575.84 382.341 582.259 382.341C586.906 382.341 589.586 380.518 589.586 377.322C589.586 374.154 587.421 373.304 582.914 372.708C578.359 372.105 577.925 371.81 577.925 370.744C577.925 369.863 578.294 368.686 581.666 368.686C584.68 368.686 585.793 369.336 586.25 371.367C586.289 371.558 586.458 371.71 586.655 371.71H588.557C588.674 371.71 588.787 371.638 588.868 371.554C588.948 371.464 589.005 371.364 588.993 371.243C588.699 367.744 586.366 366.098 581.666 366.098Z" fill="#83CD29"/>
  <path d="M530.986 22.0137L543.38 22L522.586 42.7838L517.166 48.1729L511 41.9992L530.986 22.0137ZM530.87 40.5711C531.031 40.3586 531.327 40.4634 531.552 40.436L543.369 40.4391L532.599 51.199L526.401 45.039L530.87 40.5711Z" fill="#44D1FD"/>
  <path d="M520.223 51.2089L526.401 45.0382L532.599 51.1982L532.625 51.2255L526.402 57.3901L520.223 51.2089Z" fill="#1FBCFD"/>
  <path d="M526.398 57.3906L532.621 51.2261L543.37 61.986C539.321 61.9951 535.273 61.983 531.226 61.9921C530.995 62.0437 530.853 61.8327 530.705 61.7022L526.398 57.3906Z" fill="#08589C"/>
  <path d="M342.743 528.224C339.292 528.224 336.033 527.266 332.966 525.54L113.847 399.015C112.505 398.248 111.93 396.906 111.93 395.564C111.93 394.03 112.697 392.88 113.847 392.113L250.533 313.13L251.108 313.514L479.429 445.407C480.771 446.174 481.346 447.516 481.346 448.858C481.346 450.392 480.579 451.542 479.429 452.309L352.52 525.54C349.644 527.266 346.194 528.224 342.743 528.224ZM250.533 315.623L114.997 393.838C114.422 394.222 114.038 394.797 114.038 395.564C114.038 396.331 114.422 396.906 114.997 397.289L334.116 523.815C339.484 526.882 346.194 526.882 351.753 523.815L478.662 450.583C479.237 450.2 479.621 449.625 479.621 448.858C479.621 448.091 479.237 447.516 478.662 447.133L250.533 315.623Z" fill="url(#paint0_linear_11_5856)"/>
  <path d="M250.352 259.645L280.833 78.4829L278.341 77.5244L281.984 75.4157C282.75 75.0322 283.709 75.0322 284.859 75.6073L528.708 216.511C530.625 217.661 532.159 220.728 531.967 222.645L501.295 405.149C501.103 406.107 500.719 406.683 499.953 407.066L496.31 409.175L495.735 405.724H495.927L253.419 265.779C251.502 264.821 249.969 261.753 250.352 259.645Z" fill="url(#paint1_linear_11_5856)"/>
  <path d="M527.56 221.495L531.586 219.77C531.97 220.729 532.161 221.879 532.161 222.837L501.488 405.341C501.297 406.299 500.913 406.875 500.147 407.258L496.504 409.367L495.929 405.916H496.121L483.852 398.823L527.56 221.495Z" fill="url(#paint2_linear_11_5856)"/>
  <path d="M249.584 268.08L493.433 408.983C495.35 410.133 496.884 409.366 497.267 407.449L527.94 224.946C528.323 222.837 526.79 219.961 524.681 218.811L280.832 77.9077C278.915 76.7575 277.381 77.5243 276.998 79.4414L246.325 261.945C246.133 264.054 247.667 266.929 249.584 268.08Z" fill="#24126A"/>
  <g opacity="0.51">
    <path d="M284.28 89.6021L519.31 225.33L490.171 397.289L255.332 261.562L284.28 89.6021Z" fill="#453C9E"/>
    <mask id="mask0_11_5856" style="mask-type:alpha" maskUnits="userSpaceOnUse" x="256" y="178" width="260" height="221">
      <path d="M397.134 178.67L256.23 261.103L490.111 398.172L515.991 245.766L397.134 178.67Z" fill="#D9D9D9"/>
    </mask>
    <g mask="url(#mask0_11_5856)">
      <g opacity="0.11">
        <path d="M250.542 268.464L491.899 407.834C494.583 409.367 498.609 409.559 500.909 408.217L645.072 325.017C647.372 323.675 646.989 321.374 644.497 319.841L403.14 180.471C400.456 178.937 396.43 178.746 394.129 180.087L249.967 263.288C247.475 264.63 247.858 266.93 250.542 268.464Z" fill="url(#paint3_linear_11_5856)"/>
        <path d="M492.666 293.385L438.605 262.137C436.496 260.987 436.496 258.878 438.605 257.728L475.604 236.449C477.713 235.299 481.164 235.299 483.272 236.449L537.333 267.697C539.442 268.847 539.442 270.956 537.333 272.106L500.334 293.385C498.225 294.727 494.775 294.727 492.666 293.385Z" fill="url(#paint4_linear_11_5856)"/>
        <path d="M537.332 269.422L483.271 238.174C481.162 237.024 477.712 237.024 475.603 238.174L438.604 259.454C438.028 259.837 437.453 260.22 437.262 260.795C436.687 259.645 437.07 258.495 438.604 257.728L475.603 236.449C477.712 235.299 481.162 235.299 483.271 236.449L537.332 267.697C538.866 268.464 539.249 269.806 538.674 270.764C538.482 270.381 537.907 269.806 537.332 269.422Z" fill="#9198DB"/>
        <path d="M561.108 342.27L360.392 226.48C359.05 225.713 357.325 225.713 355.983 226.48L284.477 267.889C283.518 268.464 283.518 269.997 284.477 270.573L485.192 386.171C486.534 386.938 488.26 386.938 489.602 386.171L561.108 344.954C562.066 344.379 562.066 342.845 561.108 342.27Z" fill="#ADB1F2"/>
        <path d="M561.108 344.954L560.341 345.338L360.392 229.931C359.05 229.164 357.325 229.164 355.983 229.931L285.244 270.764L284.477 270.381C283.518 269.806 283.518 268.272 284.477 267.697L355.983 226.288C357.325 225.522 359.05 225.522 360.392 226.288L561.108 342.079C562.066 342.845 562.066 344.379 561.108 344.954Z" fill="#9198DB"/>
        <path d="M303.46 265.013L478.104 365.85L471.202 369.876L296.559 269.039L303.46 265.013Z" fill="#24126A"/>
        <path d="M321.87 254.278L487.887 350.322L480.986 354.156L314.969 258.303L321.87 254.278Z" fill="#24126A"/>
        <path d="M500.343 357.415L515.871 366.425L508.97 370.451L493.441 361.441L500.343 357.415Z" fill="#24126A"/>
        <path d="M486.73 370.834L497.465 376.969L490.564 380.995L479.637 374.669L486.73 370.834Z" fill="#24126A"/>
        <path d="M333.366 247.568L527.372 359.716L520.471 363.742L326.465 251.594L333.366 247.568Z" fill="#24126A"/>
        <path d="M344.874 241.05L538.88 353.006L531.979 357.032L337.973 245.076L344.874 241.05Z" fill="#24126A"/>
        <path d="M356.37 234.34L550.568 346.296L543.475 350.322L349.469 238.366L356.37 234.34Z" fill="#24126A"/>
      </g>
    </g>
  </g>
  <path d="M96.2109 354.539L109.439 361.44L242.866 284.375C245.166 283.033 249 283.224 251.492 284.758L481.731 417.61C483.839 416.46 494 411.475 494 411.475L489.207 424.128C489.015 424.703 488.632 425.278 487.865 425.661L347.345 506.753C345.045 508.095 341.21 507.903 338.718 506.369L103.112 370.259C101.962 369.683 101.387 368.917 101.195 368.15L96.2109 354.539Z" fill="url(#paint5_linear_11_5856)"/>
  <path d="M98.3201 356.647L339.677 496.017C342.361 497.551 346.387 497.743 348.687 496.401L492.85 413.2C495.15 411.859 494.767 409.558 492.275 408.024L250.918 268.655C248.234 267.121 244.208 266.929 241.907 268.271L97.745 351.471C95.4445 352.813 95.6362 355.114 98.3201 356.647Z" fill="url(#paint6_linear_11_5856)"/>
  <path d="M412.715 465.92V463.236C412.715 463.044 412.523 462.852 412.332 463.044L402.938 468.412C402.746 468.604 402.555 468.795 402.555 468.987V471.671C402.555 471.863 402.746 472.054 402.938 471.863L412.332 466.495C412.523 466.495 412.715 466.303 412.715 465.92Z" fill="#2842A2"/>
  <path d="M398.723 473.971V471.287C398.723 471.096 398.531 470.904 398.339 471.096L388.946 476.464C388.754 476.655 388.562 476.847 388.562 477.039V479.723C388.562 479.914 388.754 480.106 388.946 479.914L398.339 474.546C398.531 474.546 398.723 474.355 398.723 473.971Z" fill="#2842A2"/>
  <path d="M455.272 405.533L254.556 289.742C253.214 288.976 251.489 288.976 250.147 289.742L178.641 331.151C177.682 331.726 177.682 333.26 178.641 333.835L379.165 449.625C380.507 450.392 382.232 450.392 383.574 449.625L455.08 408.408C456.23 407.641 456.23 406.108 455.272 405.533Z" fill="#ADB1F2"/>
  <path d="M455.272 408.216L454.505 408.599L254.556 293.193C253.214 292.426 251.489 292.426 250.147 293.193L179.408 334.026L178.641 333.643C177.682 333.067 177.682 331.534 178.641 330.959L250.147 289.55C251.489 288.784 253.214 288.784 254.556 289.55L455.272 405.34C456.23 406.107 456.23 407.641 455.272 408.216Z" fill="#9198DB"/>
  <path d="M244.969 300.094L419.229 400.74L426.897 396.331L252.637 295.685L244.969 300.094Z" fill="#24126A"/>
  <path d="M225.801 311.213L389.326 405.532L397.185 401.123L233.661 306.612L225.801 311.213Z" fill="#24126A"/>
  <path d="M213.531 318.306L406.004 429.304L413.672 424.895L221.199 313.706L213.531 318.306Z" fill="#24126A"/>
  <path d="M201.062 325.399L393.535 436.589L401.395 431.988L208.922 320.99L201.062 325.399Z" fill="#24126A"/>
  <path d="M188.801 332.493L381.273 443.682L388.941 439.273L196.469 328.083L188.801 332.493Z" fill="#24126A"/>
  <path d="M429.773 406.874L437.442 411.283L445.302 406.874L437.442 402.465L429.773 406.874Z" fill="#24126A"/>
  <path d="M402.355 413.009L418.459 422.211L426.127 417.802L410.215 408.6L402.355 413.009Z" fill="#24126A"/>
  <path d="M246.893 433.521L192.832 402.273C190.723 401.123 190.723 399.014 192.832 397.864L229.831 376.585C231.939 375.435 235.39 375.435 237.499 376.585L291.56 407.833C293.669 408.983 293.669 411.092 291.56 412.242L254.561 433.521C252.452 434.863 249.001 434.863 246.893 433.521Z" fill="url(#paint7_linear_11_5856)"/>
  <path d="M291.562 409.558L237.501 378.31C235.393 377.16 231.942 377.16 229.833 378.31L192.834 399.589C192.259 399.973 191.684 400.356 191.492 400.931C190.917 399.781 191.3 398.631 192.834 397.864L229.833 376.585C231.942 375.435 235.393 375.435 237.501 376.585L291.562 407.833C293.096 408.6 293.479 409.942 292.904 410.9C292.713 410.325 292.138 409.942 291.562 409.558Z" fill="#9198DB"/>
  <path opacity="0.5" d="M314.892 20.5125L289.012 5.75116V0L314.892 14.953V20.5125Z" fill="#42E8E0"/>
  <path opacity="0.5" d="M328.124 28.1806L318.73 22.8129V17.2534L328.124 22.4295V28.1806Z" fill="#42E8E0"/>
  <path opacity="0.5" d="M338.279 34.1235L331.953 30.4811V24.73L338.279 28.3724V34.1235Z" fill="#42E8E0"/>
  <path opacity="0.5" d="M303.006 26.6469L289.012 18.5953V12.8441L303.006 21.0875V26.6469Z" fill="#42E8E0"/>
  <path opacity="0.5" d="M324.285 38.9162L307.031 28.9475V23.3881L324.285 33.3567V38.9162Z" fill="#42E8E0"/>
  <path opacity="0.5" d="M334.44 44.8591L328.113 41.2167V35.4656L334.44 39.108V44.8591Z" fill="#42E8E0"/>
  <path opacity="0.5" d="M344.225 50.4185L337.898 46.7761V41.2167L344.225 44.8591V50.4185Z" fill="#42E8E0"/>
  <path d="M299.172 37.3826L289.012 31.4397V25.8802L299.172 31.8231V37.3826Z" fill="#42E8E0"/>
  <path d="M306.646 41.6L303.195 39.6829V33.9318L306.646 36.0405V41.6Z" fill="#42E8E0"/>
  <path opacity="0.5" d="M316.807 47.5428L310.48 43.9004V38.3409L316.807 41.9833V47.5428Z" fill="#42E8E0"/>
  <path opacity="0.5" d="M326.586 66.1382L289.012 44.4755V38.7244L326.586 60.3871V66.1382Z" fill="#42E8E0"/>
  <path opacity="0.5" d="M339.819 73.8065L330.426 68.4388V62.6876L339.819 68.0554V73.8065Z" fill="#42E8E0"/>
  <path opacity="0.5" d="M299.172 63.2628L289.012 57.3199V51.7605L299.172 57.7034V63.2628Z" fill="#42E8E0"/>
  <path opacity="0.5" d="M323.133 77.0654L303.195 65.5631V59.8119L323.133 71.3142V77.0654Z" fill="#42E8E0"/>
  <path opacity="0.5" d="M333.299 83.0086L326.973 79.3662V73.615L333.299 77.2574V83.0086Z" fill="#42E8E0"/>
  <path opacity="0.5" d="M309.908 82.4331L289.012 70.3557V64.6045L309.908 76.6819V82.4331Z" fill="#42E8E0"/>
  <path d="M328.887 93.3603L313.742 84.5419V78.9824L328.887 87.6092V93.3603Z" fill="#42E8E0"/>
  <path opacity="0.5" d="M342.883 101.412L332.723 95.661V89.9098L342.883 95.8527V101.412Z" fill="#42E8E0"/>
  <path opacity="0.5" d="M296.105 87.4176L289.012 83.2001V77.6406L296.105 81.6664V87.4176Z" fill="#42E8E0"/>
  <path opacity="0.5" d="M309.335 94.8942L299.941 89.5265V83.967L309.335 89.3348V94.8942Z" fill="#42E8E0"/>
  <path opacity="0.5" d="M328.121 105.822L313.168 97.1948V91.6354L328.121 100.262V105.822Z" fill="#42E8E0"/>
  <path opacity="0.5" d="M310.483 108.697L289.012 96.2359V90.4847L310.483 102.946V108.697Z" fill="#42E8E0"/>
  <path opacity="0.5" d="M334.641 122.5L314.512 110.998V105.246L334.641 116.941V122.5Z" fill="#42E8E0"/>
  <path d="M344.99 128.443L338.664 124.8V119.241L344.99 122.883V128.443Z" fill="#42E8E0"/>
  <path opacity="0.5" d="M354.764 134.194L348.438 130.551V124.8L354.764 128.442V134.194Z" fill="#42E8E0"/>
  <path opacity="0.5" d="M301.856 116.557L289.012 109.08V103.521L301.856 110.997V116.557Z" fill="#42E8E0"/>
  <path d="M355.914 44.2839L373.743 54.636V48.8848L355.914 38.5327V44.2839Z" fill="#42E8E0"/>
  <path opacity="0.5" d="M359.746 59.4288L373.741 67.4804V61.9209L359.746 53.6776V59.4288Z" fill="#42E8E0"/>
  <path opacity="0.5" d="M363.582 74.5733L373.742 80.5162V74.765L363.582 68.8221V74.5733Z" fill="#42E8E0"/>
  <path opacity="0.5" d="M358.984 84.9257L373.746 93.3608V87.8013L358.984 79.1746V84.9257Z" fill="#42E8E0"/>
  <path opacity="0.5" d="M363.582 100.454L373.742 106.397V100.646L363.582 94.7026V100.454Z" fill="#42E8E0"/>
  <path opacity="0.5" d="M360.902 111.764L373.747 119.241V113.681L360.902 106.205V111.764Z" fill="#42E8E0"/>
  <path opacity="0.5" d="M366.652 128.059L373.745 132.277V126.526L366.652 122.5V128.059Z" fill="#42E8E0"/>
  <path opacity="0.5" d="M360.137 137.261L373.748 145.121V139.562L360.137 131.702V137.261Z" fill="#42E8E0"/>
  <path opacity="0.5" d="M360.902 150.68L373.747 158.157V152.406L360.902 144.929V150.68Z" fill="#42E8E0"/>
  <path opacity="0.5" d="M311.247 122.116L305.879 118.857V113.298L311.247 116.365V122.116Z" fill="#42E8E0"/>
  <path opacity="0.5" d="M327.543 131.51L315.273 124.417V118.666L327.543 125.759V131.51Z" fill="#42E8E0"/>
  <path opacity="0.5" d="M414.767 78.0241L389.078 63.2628V57.5116L414.767 72.4646V78.0241Z" fill="#42E8E0"/>
  <path opacity="0.5" d="M427.999 85.6925L418.797 80.3247V74.7653L427.999 80.133V85.6925Z" fill="#42E8E0"/>
  <path d="M438.358 91.6352L432.031 87.9927V82.2416L438.358 85.884V91.6352Z" fill="#42E8E0"/>
  <path opacity="0.5" d="M403.073 84.1584L389.078 76.1068V70.3556L403.073 78.5989V84.1584Z" fill="#42E8E0"/>
  <path opacity="0.5" d="M424.167 96.4278L407.105 86.4591V80.8997L424.167 90.8683V96.4278Z" fill="#42E8E0"/>
  <path d="M434.518 102.371L428.191 98.7283V92.9772L434.518 96.6196V102.371Z" fill="#42E8E0"/>
  <path opacity="0.5" d="M444.291 107.93L437.965 104.288V98.7283L444.291 102.371V107.93Z" fill="#42E8E0"/>
  <path opacity="0.5" d="M399.239 94.8942L389.078 89.143V83.3918L399.239 89.3347V94.8942Z" fill="#42E8E0"/>
  <path opacity="0.5" d="M406.529 99.1116L403.078 97.1945V91.4434L406.529 93.5521V99.1116Z" fill="#42E8E0"/>
  <path opacity="0.5" d="M416.873 105.054L410.547 101.412V95.8525L416.873 99.4949V105.054Z" fill="#42E8E0"/>
  <path opacity="0.5" d="M426.652 123.65L389.078 101.987V96.236L426.652 117.899V123.65Z" fill="#42E8E0"/>
  <path opacity="0.5" d="M439.69 131.318L430.488 125.95V120.199L439.69 125.567V131.318Z" fill="#42E8E0"/>
  <path opacity="0.5" d="M399.239 120.774L389.078 115.023V109.272L399.239 115.215V120.774Z" fill="#42E8E0"/>
  <path opacity="0.5" d="M423.015 134.577L403.078 123.075V117.324L423.015 128.826V134.577Z" fill="#42E8E0"/>
  <path opacity="0.5" d="M433.365 140.52L427.039 136.878V131.127L433.365 134.769V140.52Z" fill="#42E8E0"/>
  <path d="M409.782 139.945L389.078 127.867V122.116L409.782 134.194V139.945Z" fill="#42E8E0"/>
  <path opacity="0.5" d="M428.769 150.872L413.816 142.245V136.494L428.769 145.121V150.872Z" fill="#42E8E0"/>
  <path opacity="0.5" d="M442.949 158.924L432.789 153.173V147.422L442.949 153.365V158.924Z" fill="#42E8E0"/>
  <path opacity="0.5" d="M395.98 144.929L389.078 140.712V135.152L395.98 139.178V144.929Z" fill="#42E8E0"/>
  <path opacity="0.5" d="M409.206 152.406L400.004 147.23V141.478L409.206 146.846V152.406Z" fill="#42E8E0"/>
  <path d="M428.191 163.333L413.238 154.706V149.147L428.191 157.774V163.333Z" fill="#42E8E0"/>
  <path opacity="0.5" d="M410.549 166.209L389.078 153.748V147.997L410.549 160.457V166.209Z" fill="#42E8E0"/>
  <path opacity="0.5" d="M434.707 180.011L414.578 168.509V162.758L434.707 174.452V180.011Z" fill="#42E8E0"/>
  <path opacity="0.5" d="M444.869 185.954L438.543 182.312V176.752L444.869 180.395V185.954Z" fill="#42E8E0"/>
  <path opacity="0.5" d="M454.83 191.705L448.504 188.063V182.312L454.83 185.954V191.705Z" fill="#42E8E0"/>
  <path opacity="0.5" d="M401.922 174.069L389.078 166.592V161.033L401.922 168.509V174.069Z" fill="#42E8E0"/>
  <path d="M455.793 101.795L473.813 112.148V106.396L455.793 96.0443V101.795Z" fill="#42E8E0"/>
  <path opacity="0.5" d="M459.629 116.94L473.815 124.992V119.433L459.629 111.189V116.94Z" fill="#42E8E0"/>
  <path opacity="0.5" d="M463.66 132.085L473.821 138.028V132.277L463.66 126.334V132.085Z" fill="#42E8E0"/>
  <path opacity="0.5" d="M458.867 142.437L473.82 150.872V145.313L458.867 136.686V142.437Z" fill="#42E8E0"/>
  <path opacity="0.5" d="M463.66 157.965L473.821 163.908V158.157L463.66 152.214V157.965Z" fill="#42E8E0"/>
  <path opacity="0.5" d="M460.781 169.276L473.817 176.752V171.193L460.781 163.716V169.276Z" fill="#42E8E0"/>
  <path opacity="0.5" d="M466.723 185.571L473.816 189.788V184.037L466.723 180.011V185.571Z" fill="#42E8E0"/>
  <path opacity="0.5" d="M460.207 194.773L473.818 202.633V197.073L460.207 189.213V194.773Z" fill="#42E8E0"/>
  <path opacity="0.5" d="M460.781 208.192L473.817 215.668V209.917L460.781 202.441V208.192Z" fill="#42E8E0"/>
  <path d="M411.321 179.628L405.953 176.369V170.81L411.321 173.877V179.628Z" fill="#42E8E0"/>
  <path opacity="0.5" d="M427.609 189.022L415.34 181.928V176.177L427.609 183.27V189.022Z" fill="#42E8E0"/>
  <path opacity="0.5" d="M314.892 137.069L289.012 122.116V116.557L314.892 131.318V137.069Z" fill="#42E8E0"/>
  <path opacity="0.5" d="M328.124 144.737L318.73 139.37V133.619L328.124 138.986V144.737Z" fill="#42E8E0"/>
  <path opacity="0.5" d="M338.279 150.68L331.953 147.038V141.287L338.279 144.929V150.68Z" fill="#42E8E0"/>
  <path opacity="0.5" d="M303.006 143.204L289.012 135.152V129.401L303.006 137.644V143.204Z" fill="#42E8E0"/>
  <path opacity="0.5" d="M324.285 155.473L307.031 145.505V139.753L324.285 149.722V155.473Z" fill="#42E8E0"/>
  <path opacity="0.5" d="M334.44 161.416L328.113 157.774V152.023L334.44 155.665V161.416Z" fill="#42E8E0"/>
  <path opacity="0.5" d="M344.225 166.976L337.898 163.333V157.774L344.225 161.416V166.976Z" fill="#42E8E0"/>
  <path opacity="0.5" d="M299.172 153.939L289.012 147.997V142.437L299.172 148.188V153.939Z" fill="#42E8E0"/>
  <path opacity="0.5" d="M306.646 158.157L303.195 156.24V150.489L306.646 152.597V158.157Z" fill="#42E8E0"/>
  <path opacity="0.5" d="M316.807 164.1L310.48 160.457V154.898L316.807 158.54V164.1Z" fill="#42E8E0"/>
  <path opacity="0.5" d="M326.586 182.695L289.012 161.032V155.281L326.586 176.944V182.695Z" fill="#42E8E0"/>
  <path opacity="0.5" d="M339.819 190.363L330.426 184.996V179.245L339.819 184.612V190.363Z" fill="#42E8E0"/>
  <path opacity="0.5" d="M299.172 179.82L289.012 173.877V168.317L299.172 174.069V179.82Z" fill="#42E8E0"/>
  <path opacity="0.5" d="M323.133 193.622L303.195 182.12V176.369L323.133 187.871V193.622Z" fill="#42E8E0"/>
  <path opacity="0.5" d="M333.299 199.565L326.973 195.923V190.172L333.299 193.814V199.565Z" fill="#42E8E0"/>
  <path opacity="0.5" d="M309.908 198.799L289.012 186.913V181.162L309.908 193.239V198.799Z" fill="#42E8E0"/>
  <path opacity="0.5" d="M328.887 209.917L313.742 201.099V195.54L328.887 204.166V209.917Z" fill="#42E8E0"/>
  <path opacity="0.5" d="M342.883 217.969L332.723 212.026V206.467L342.883 212.41V217.969Z" fill="#42E8E0"/>
  <path opacity="0.5" d="M296.105 203.783L289.012 199.757V194.198L296.105 198.223V203.783Z" fill="#42E8E0"/>
  <path opacity="0.5" d="M309.335 211.451L299.941 206.083V200.524L309.335 205.892V211.451Z" fill="#42E8E0"/>
  <path opacity="0.5" d="M328.121 222.378L313.168 213.751V208.192L328.121 216.819V222.378Z" fill="#42E8E0"/>
  <path opacity="0.5" d="M310.483 225.254L289.012 212.793V207.042L310.483 219.503V225.254Z" fill="#42E8E0"/>
  <path opacity="0.5" d="M334.641 239.056L314.512 227.362V221.803L334.641 233.497V239.056Z" fill="#42E8E0"/>
  <path opacity="0.5" d="M344.99 245L338.664 241.357V235.606L344.99 239.248V245Z" fill="#42E8E0"/>
  <path opacity="0.5" d="M354.764 250.751L348.438 247.108V241.357L354.764 244.999V250.751Z" fill="#42E8E0"/>
  <path opacity="0.5" d="M301.856 233.114L289.012 225.637V220.078L301.856 227.555V233.114Z" fill="#42E8E0"/>
  <path opacity="0.5" d="M355.914 160.841L373.743 171.001V165.442L355.914 155.09V160.841Z" fill="#42E8E0"/>
  <path opacity="0.5" d="M359.746 175.986L373.741 184.037V178.286L359.746 170.234V175.986Z" fill="#42E8E0"/>
  <path opacity="0.5" d="M363.582 191.13L373.742 196.881V191.322L363.582 185.379V191.13Z" fill="#42E8E0"/>
  <path opacity="0.5" d="M358.984 201.291L373.746 209.917V204.166L358.984 195.731V201.291Z" fill="#42E8E0"/>
  <path opacity="0.5" d="M363.582 217.01L373.742 222.761V217.202L363.582 211.259V217.01Z" fill="#42E8E0"/>
  <path opacity="0.5" d="M360.902 228.321L373.747 235.798V230.046L360.902 222.57V228.321Z" fill="#42E8E0"/>
  <path opacity="0.5" d="M366.652 244.616L373.745 248.642V243.082L366.652 239.057V244.616Z" fill="#42E8E0"/>
  <path opacity="0.5" d="M360.137 253.818L373.748 261.678V255.927L360.137 248.067V253.818Z" fill="#42E8E0"/>
  <path opacity="0.5" d="M360.902 267.237L373.747 274.522V268.963L360.902 261.486V267.237Z" fill="#42E8E0"/>
  <path opacity="0.5" d="M311.247 238.482L305.879 235.414V229.663L311.247 232.922V238.482Z" fill="#42E8E0"/>
  <path opacity="0.5" d="M327.543 247.875L315.273 240.782V235.222L327.543 242.315V247.875Z" fill="#42E8E0"/>
  <path opacity="0.5" d="M337.9 291.584L317.004 279.507V273.755L337.9 285.833V291.584Z" fill="#42E8E0"/>
  <path opacity="0.5" d="M352.083 299.636L343.84 295.035V289.284L352.083 294.076V299.636Z" fill="#42E8E0"/>
  <path opacity="0.5" d="M414.767 194.581L389.078 179.628V174.069L414.767 188.83V194.581Z" fill="#42E8E0"/>
  <path opacity="0.5" d="M427.999 202.249L418.797 196.881V191.13L427.999 196.498V202.249Z" fill="#42E8E0"/>
  <path opacity="0.5" d="M438.358 208.192L432.031 204.55V198.798L438.358 202.441V208.192Z" fill="#42E8E0"/>
  <path opacity="0.5" d="M403.073 200.716L389.078 192.664V186.913L403.073 195.156V200.716Z" fill="#42E8E0"/>
  <path opacity="0.5" d="M424.167 212.985L407.105 203.016V197.265L424.167 207.234V212.985Z" fill="#42E8E0"/>
  <path opacity="0.5" d="M434.518 218.928L428.191 215.285V209.534L434.518 213.176V218.928Z" fill="#42E8E0"/>
  <path opacity="0.5" d="M444.291 224.487L437.965 220.845V215.285L444.291 218.928V224.487Z" fill="#42E8E0"/>
  <path opacity="0.5" d="M399.239 211.451L389.078 205.508V199.949L399.239 205.7V211.451Z" fill="#42E8E0"/>
  <path opacity="0.5" d="M406.529 215.669L403.078 213.752V208L406.529 210.109V215.669Z" fill="#42E8E0"/>
  <path opacity="0.5" d="M416.873 221.612L410.547 217.969V212.41L416.873 216.052V221.612Z" fill="#42E8E0"/>
  <path opacity="0.5" d="M426.652 240.207L389.078 218.544V212.793L426.652 234.456V240.207Z" fill="#42E8E0"/>
  <path opacity="0.5" d="M439.69 247.875L430.488 242.507V236.756L439.69 242.124V247.875Z" fill="#42E8E0"/>
  <path opacity="0.5" d="M399.239 237.331L389.078 231.389V225.829L399.239 231.58V237.331Z" fill="#42E8E0"/>
  <path opacity="0.5" d="M423.015 251.134L403.078 239.632V233.88L423.015 245.383V251.134Z" fill="#42E8E0"/>
  <path opacity="0.5" d="M433.365 257.077L427.039 253.434V247.683L433.365 251.326V257.077Z" fill="#42E8E0"/>
  <path opacity="0.5" d="M409.782 256.31L389.078 244.425V238.673L409.782 250.751V256.31Z" fill="#42E8E0"/>
  <path opacity="0.5" d="M428.769 267.429L413.816 258.611V253.051L428.769 261.678V267.429Z" fill="#42E8E0"/>
  <path opacity="0.5" d="M442.949 275.481L432.789 269.538V263.978L442.949 269.921V275.481Z" fill="#42E8E0"/>
  <path opacity="0.5" d="M395.98 261.295L389.078 257.269V251.709L395.98 255.735V261.295Z" fill="#42E8E0"/>
  <path opacity="0.5" d="M409.206 268.963L400.004 263.595V258.036L409.206 263.403V268.963Z" fill="#42E8E0"/>
  <path opacity="0.5" d="M428.191 279.89L413.238 271.263V265.704L428.191 274.33V279.89Z" fill="#42E8E0"/>
  <path opacity="0.5" d="M410.549 282.765L389.078 270.305V264.553L410.549 277.014V282.765Z" fill="#42E8E0"/>
  <path opacity="0.5" d="M434.707 296.568L414.578 284.874V279.315L434.707 291.009V296.568Z" fill="#42E8E0"/>
  <path opacity="0.5" d="M444.869 302.511L438.543 298.869V293.309L444.869 296.952V302.511Z" fill="#42E8E0"/>
  <path opacity="0.5" d="M454.83 308.262L448.504 304.62V298.869L454.83 302.511V308.262Z" fill="#42E8E0"/>
  <path opacity="0.5" d="M401.922 290.626L389.078 283.149V277.59L401.922 285.066V290.626Z" fill="#42E8E0"/>
  <path opacity="0.5" d="M455.793 218.353L473.813 228.513V222.954L455.793 212.601V218.353Z" fill="#42E8E0"/>
  <path opacity="0.5" d="M459.629 233.497L473.815 241.549V235.798L459.629 227.746V233.497Z" fill="#42E8E0"/>
  <path opacity="0.5" d="M463.66 248.642L473.821 254.393V248.834L463.66 242.891V248.642Z" fill="#42E8E0"/>
  <path opacity="0.5" d="M458.867 258.802L473.82 267.429V261.678L458.867 253.243V258.802Z" fill="#42E8E0"/>
  <path opacity="0.5" d="M463.66 274.522L473.821 280.273V274.714L463.66 268.771V274.522Z" fill="#42E8E0"/>
  <path opacity="0.5" d="M460.781 285.833L473.817 293.309V287.558L460.781 280.273V285.833Z" fill="#42E8E0"/>
  <path opacity="0.5" d="M466.723 302.128L473.816 306.154V300.594L466.723 296.568V302.128Z" fill="#42E8E0"/>
  <path opacity="0.5" d="M460.207 311.33L473.818 319.189V313.438L460.207 305.578V311.33Z" fill="#42E8E0"/>
  <path opacity="0.5" d="M460.781 324.749L473.817 332.034V326.474L460.781 318.998V324.749Z" fill="#42E8E0"/>
  <path opacity="0.5" d="M411.321 295.993L405.953 292.926V287.175L411.321 290.434V295.993Z" fill="#42E8E0"/>
  <path opacity="0.5" d="M427.609 305.578L415.34 298.294V292.734L427.609 299.827V305.578Z" fill="#42E8E0"/>
  <path opacity="0.5" d="M437.775 349.096L417.07 337.018V331.267L437.775 343.345V349.096Z" fill="#42E8E0"/>
  <path opacity="0.5" d="M452.157 357.339L443.914 352.546V346.795L452.157 351.588V357.339Z" fill="#42E8E0"/>
  <g opacity="0.1">
    <path d="M21.8842 503.552L0 490.911V516.194L21.8842 528.835L43.7684 516.194V490.911L21.8842 503.552Z" fill="#42E8E0"/>
    <path d="M21.8842 528.835L0 516.194V490.911L21.8842 503.552V528.835Z" fill="#42E8E0"/>
    <path d="M43.7709 516.194L21.8867 528.835V503.552L43.7709 490.911V516.194Z" fill="#2FD3C7"/>
    <path d="M21.8842 503.552L0 490.91L21.8842 478.269L43.7684 490.91L21.8842 503.552Z" fill="#42E8E0"/>
    <path d="M21.8842 503.552L0 490.911V492.091L21.8842 504.732L43.7684 492.091V490.911L21.8842 503.552Z" fill="white"/>
  </g>
  <path opacity="0.2" d="M21.8842 488.214L0 475.573L21.8842 462.931L43.7684 475.573L21.8842 488.214Z" fill="#03002D"/>
  <path d="M21.8842 443.884L0 431.243V456.526L21.8842 469.167L43.7684 456.526V431.243L21.8842 443.884Z" fill="#42E8E0"/>
  <path d="M21.8842 469.167L0 456.526V431.243L21.8842 443.884V469.167Z" fill="#42E8E0"/>
  <path d="M43.7788 456.526L21.8945 469.167V443.884L43.7788 431.243V456.526Z" fill="#2FD3C7"/>
  <path d="M21.8842 443.885L0 431.243L21.8842 418.433L43.7684 431.243L21.8842 443.885Z" fill="#42E8E0"/>
  <path d="M21.8842 443.884L0 431.243V432.254L21.8842 444.896L43.7684 432.254V431.243L21.8842 443.884Z" fill="white"/>
  <g opacity="0.1">
    <path d="M527.884 167.119L506 154.477V179.76L527.884 192.402L549.768 179.76V154.477L527.884 167.119Z" fill="#42E8E0"/>
    <path d="M527.884 192.402L506 179.76V154.477L527.884 167.119V192.402Z" fill="#42E8E0"/>
    <path d="M549.771 179.76L527.887 192.402V167.119L549.771 154.477V179.76Z" fill="#2FD3C7"/>
    <path d="M527.884 167.119L506 154.477L527.884 141.836L549.768 154.477L527.884 167.119Z" fill="#42E8E0"/>
    <path d="M527.884 167.119L506 154.477V155.657L527.884 168.299L549.768 155.657V154.477L527.884 167.119Z" fill="white"/>
  </g>
  <path opacity="0.2" d="M527.884 151.781L506 139.139L527.884 126.498L549.768 139.139L527.884 151.781Z" fill="#03002D"/>
  <path d="M527.884 107.451L506 94.8094V120.092L527.884 132.734L549.768 120.092V94.8094L527.884 107.451Z" fill="#42E8E0"/>
  <path d="M527.884 132.734L506 120.092V94.8094L527.884 107.451V132.734Z" fill="#42E8E0"/>
  <path d="M549.779 120.092L527.895 132.734V107.451L549.779 94.8094V120.092Z" fill="#2FD3C7"/>
  <path d="M527.884 107.451L506 94.81L527.884 82L549.768 94.81L527.884 107.451Z" fill="#42E8E0"/>
  <path d="M527.884 107.451L506 94.8094V95.8208L527.884 108.462L549.768 95.8208V94.8094L527.884 107.451Z" fill="white"/>
  <g opacity="0.1">
    <path d="M135.353 274.832L113.469 262.191V287.474L135.353 300.115L157.237 287.474V262.191L135.353 274.832Z" fill="#42E8E0"/>
    <path d="M135.353 300.115L113.469 287.474V262.191L135.353 274.832V300.115Z" fill="#42E8E0"/>
    <path d="M157.24 287.474L135.355 300.115V274.832L157.24 262.191V287.474Z" fill="#2FD3C7"/>
    <path d="M135.353 274.832L113.469 262.191L135.353 249.549L157.237 262.191L135.353 274.832Z" fill="#42E8E0"/>
    <path d="M135.353 274.832L113.469 262.191V263.371L135.353 276.012L157.237 263.371V262.191L135.353 274.832Z" fill="white"/>
  </g>
  <path opacity="0.2" d="M135.353 259.494L113.469 246.853L135.353 234.211L157.237 246.853L135.353 259.494Z" fill="#03002D"/>
  <path d="M135.353 215.164L113.469 202.523V227.806L135.353 240.447L157.237 227.806V202.523L135.353 215.164Z" fill="#42E8E0"/>
  <path d="M135.353 240.447L113.469 227.806V202.523L135.353 215.164V240.447Z" fill="#42E8E0"/>
  <path d="M157.248 227.806L135.363 240.447V215.164L157.248 202.523V227.806Z" fill="#2FD3C7"/>
  <path d="M135.353 215.165L113.469 202.523L135.353 189.714L157.237 202.523L135.353 215.165Z" fill="#42E8E0"/>
  <path d="M135.353 215.164L113.469 202.523V203.534L135.353 216.176L157.237 203.534V202.523L135.353 215.164Z" fill="white"/>
  <g opacity="0.1">
    <path d="M577.728 499.12L555.844 486.478V511.761L577.728 524.403L599.612 511.761V486.478L577.728 499.12Z" fill="#42E8E0"/>
    <path d="M577.728 524.403L555.844 511.761V486.478L577.728 499.12V524.403Z" fill="#42E8E0"/>
    <path d="M599.615 511.761L577.73 524.403V499.12L599.615 486.478V511.761Z" fill="#2FD3C7"/>
    <path d="M577.728 499.119L555.844 486.478L577.728 473.837L599.612 486.478L577.728 499.119Z" fill="#42E8E0"/>
    <path d="M577.728 499.12L555.844 486.478V487.658L577.728 500.3L599.612 487.658V486.478L577.728 499.12Z" fill="white"/>
  </g>
  <path opacity="0.2" d="M577.728 483.782L555.844 471.14L577.728 458.499L599.612 471.14L577.728 483.782Z" fill="#03002D"/>
  <path d="M577.728 439.452L555.844 426.81V452.093L577.728 464.735L599.612 452.093V426.81L577.728 439.452Z" fill="#42E8E0"/>
  <path d="M577.728 464.735L555.844 452.093V426.81L577.728 439.452V464.735Z" fill="#42E8E0"/>
  <path d="M599.623 452.093L577.738 464.735V439.452L599.623 426.81V452.093Z" fill="#2FD3C7"/>
  <path d="M577.728 439.452L555.844 426.811L577.728 414.001L599.612 426.811L577.728 439.452Z" fill="#42E8E0"/>
  <path d="M577.728 439.452L555.844 426.81V427.822L577.728 440.463L599.612 427.822V426.81L577.728 439.452Z" fill="white"/>
  <defs>
    <linearGradient id="paint0_linear_11_5856" x1="481.487" y1="420.739" x2="111.922" y2="420.739" gradientUnits="userSpaceOnUse">
      <stop stop-color="#42E8E0"/>
      <stop offset="0.1507" stop-color="#43E3E0"/>
      <stop offset="0.3285" stop-color="#45D5DF"/>
      <stop offset="0.5199" stop-color="#49BDDD"/>
      <stop offset="0.7209" stop-color="#4E9CDB"/>
      <stop offset="0.9274" stop-color="#5472D8"/>
      <stop offset="1" stop-color="#5761D7"/>
    </linearGradient>
    <linearGradient id="paint1_linear_11_5856" x1="532.043" y1="242.21" x2="250.25" y2="242.21" gradientUnits="userSpaceOnUse">
      <stop stop-color="#C0BFF6"/>
      <stop offset="0.2938" stop-color="#C5C4F7"/>
      <stop offset="0.6399" stop-color="#D3D2F9"/>
      <stop offset="1" stop-color="#E9E9FD"/>
    </linearGradient>
    <linearGradient id="paint2_linear_11_5856" x1="532.043" y1="314.478" x2="483.657" y2="314.478" gradientUnits="userSpaceOnUse">
      <stop stop-color="#5761D7"/>
      <stop offset="0.1779" stop-color="#5C66D9"/>
      <stop offset="0.3876" stop-color="#6A73DF"/>
      <stop offset="0.6134" stop-color="#8289E8"/>
      <stop offset="0.849" stop-color="#A3A7F5"/>
      <stop offset="1" stop-color="#BCBEFF"/>
    </linearGradient>
    <linearGradient id="paint3_linear_11_5856" x1="512.698" y1="294.186" x2="114.501" y2="294.186" gradientUnits="userSpaceOnUse">
      <stop stop-color="#C0BFF6"/>
      <stop offset="0.2938" stop-color="#C5C4F7"/>
      <stop offset="0.6399" stop-color="#D3D2F9"/>
      <stop offset="1" stop-color="#E9E9FD"/>
    </linearGradient>
    <linearGradient id="paint4_linear_11_5856" x1="538.905" y1="264.955" x2="436.978" y2="264.955" gradientUnits="userSpaceOnUse">
      <stop stop-color="#C0BFF6"/>
      <stop offset="0.2938" stop-color="#C5C4F7"/>
      <stop offset="0.6399" stop-color="#D3D2F9"/>
      <stop offset="1" stop-color="#E9E9FD"/>
    </linearGradient>
    <linearGradient id="paint5_linear_11_5856" x1="494.279" y1="395.714" x2="96.2953" y2="395.714" gradientUnits="userSpaceOnUse">
      <stop stop-color="#5761D7"/>
      <stop offset="0.1779" stop-color="#5C66D9"/>
      <stop offset="0.3876" stop-color="#6A73DF"/>
      <stop offset="0.6134" stop-color="#8289E8"/>
      <stop offset="0.849" stop-color="#A3A7F5"/>
      <stop offset="1" stop-color="#BCBEFF"/>
    </linearGradient>
    <linearGradient id="paint6_linear_11_5856" x1="360.556" y1="382.444" x2="-37.6403" y2="382.444" gradientUnits="userSpaceOnUse">
      <stop stop-color="#C0BFF6"/>
      <stop offset="0.2938" stop-color="#C5C4F7"/>
      <stop offset="0.6399" stop-color="#D3D2F9"/>
      <stop offset="1" stop-color="#E9E9FD"/>
    </linearGradient>
    <linearGradient id="paint7_linear_11_5856" x1="293.122" y1="405.049" x2="191.195" y2="405.049" gradientUnits="userSpaceOnUse">
      <stop stop-color="#C0BFF6"/>
      <stop offset="0.2938" stop-color="#C5C4F7"/>
      <stop offset="0.6399" stop-color="#D3D2F9"/>
      <stop offset="1" stop-color="#E9E9FD"/>
    </linearGradient>
  </defs>
</svg>
