<svg width="505" height="529" viewBox="0 0 505 529" fill="none" xmlns="http://www.w3.org/2000/svg">
  <path d="M306.162 374.92C303.456 374.92 300.751 374.208 298.187 372.783L119.186 269.477C117.335 268.338 116.195 266.485 116.195 264.348C116.195 262.21 117.335 260.216 119.186 259.076L229.264 195.098L229.406 195.24L416.098 303.105C417.949 304.245 419.088 306.097 419.088 308.377C419.088 310.515 417.949 312.509 416.098 313.649L313.994 372.925C311.573 374.208 308.868 374.92 306.162 374.92ZM298.472 372.355C303.171 375.063 309.01 375.063 313.709 372.355L415.813 313.079C417.522 312.082 418.518 310.372 418.518 308.377C418.518 306.382 417.522 304.673 415.813 303.675L229.264 195.953L119.471 259.788C117.762 260.786 116.765 262.495 116.765 264.49C116.765 266.485 117.762 268.195 119.471 269.192L298.472 372.355Z" fill="#42E8E0"/>
  <g opacity="0.6">
    <path d="M178.006 327.898L168.18 322.198L170.316 320.916L180.142 326.616L178.006 327.898Z" fill="#42E8E0"/>
    <path d="M186.406 332.742L181.422 329.892L183.7 328.609L188.542 331.459L186.406 332.742Z" fill="#42E8E0"/>
    <path d="M175.866 332.459L171.594 330.036L173.872 328.754L178.002 331.319L175.866 332.459Z" fill="#42E8E0"/>
    <path d="M182.842 336.589L178 333.739L180.136 332.457L185.12 335.307L182.842 336.589Z" fill="#42E8E0"/>
    <path d="M185.976 344.143L166.609 333.028L168.745 331.746L188.112 343.003L185.976 344.143Z" fill="#42E8E0"/>
    <path d="M130.586 366.371L111.219 355.115L113.355 353.975L132.722 365.089L130.586 366.371Z" fill="#42E8E0"/>
    <path d="M138.133 370.788L133.148 367.796L135.284 366.656L140.269 369.506L138.133 370.788Z" fill="#42E8E0"/>
    <path d="M165.756 338.3L161.484 335.878L163.763 334.596L167.893 337.018L165.756 338.3Z" fill="#42E8E0"/>
    <path d="M172.875 342.433L167.891 339.583L170.027 338.301L175.011 341.151L172.875 342.433Z" fill="#42E8E0"/>
    <path d="M167.18 344.997L156.5 338.87L158.636 337.588L169.316 343.715L167.18 344.997Z" fill="#42E8E0"/>
    <path d="M174.304 349.128L169.32 346.278L171.599 344.996L176.441 347.846L174.304 349.128Z" fill="#42E8E0"/>
    <path d="M181.562 353.261L176.578 350.411L178.714 349.129L183.698 351.979L181.562 353.261Z" fill="#42E8E0"/>
    <path d="M193.094 359.959L183.695 354.544L185.831 353.262L195.23 358.676L193.094 359.959Z" fill="#42E8E0"/>
    <path d="M177.429 362.523L172.445 359.673L174.581 358.533L179.566 361.383L177.429 362.523Z" fill="#42E8E0"/>
    <path d="M188.969 369.221L179.57 363.806L181.706 362.666L191.105 368.081L188.969 369.221Z" fill="#42E8E0"/>
    <path d="M151.375 347.562L146.391 344.712L148.527 343.43L153.511 346.279L151.375 347.562Z" fill="#42E8E0"/>
    <path d="M158.492 351.695L153.508 348.845L155.786 347.562L160.628 350.412L158.492 351.695Z" fill="#42E8E0"/>
    <path d="M170.172 358.39L160.773 352.976L162.909 351.693L172.308 357.108L170.172 358.39Z" fill="#42E8E0"/>
    <path d="M189.396 363.663L184.555 360.814L186.691 359.531L191.532 362.381L189.396 363.663Z" fill="#42E8E0"/>
    <path d="M196.656 367.796L191.672 364.947L193.808 363.807L198.792 366.656L196.656 367.796Z" fill="#42E8E0"/>
    <path d="M208.186 374.492L198.93 369.077L201.066 367.938L210.322 373.352L208.186 374.492Z" fill="#42E8E0"/>
    <path d="M145.82 375.204L140.836 372.355L142.972 371.072L147.956 373.922L145.82 375.204Z" fill="#42E8E0"/>
    <path d="M157.35 381.902L148.094 376.487L150.23 375.205L159.486 380.62L157.35 381.902Z" fill="#42E8E0"/>
    <path d="M141.265 353.404L136.281 350.554L138.417 349.271L143.401 352.121L141.265 353.404Z" fill="#42E8E0"/>
    <path d="M152.797 360.101L143.398 354.687L145.677 353.404L154.933 358.819L152.797 360.101Z" fill="#42E8E0"/>
    <path d="M146.959 381.759L142.117 378.909L144.253 377.627L149.237 380.477L146.959 381.759Z" fill="#42E8E0"/>
    <path d="M158.633 388.457L149.234 383.042L151.37 381.76L160.769 387.174L158.633 388.457Z" fill="#42E8E0"/>
    <path d="M200.781 352.691L195.797 349.841L197.933 348.701L202.917 351.551L200.781 352.691Z" fill="#42E8E0"/>
    <path d="M193.383 348.415L188.398 345.566L190.534 344.283L195.519 347.133L193.383 348.415Z" fill="#42E8E0"/>
    <path d="M212.327 359.388L203.07 353.974L205.206 352.834L214.605 358.249L212.327 359.388Z" fill="#42E8E0"/>
    <path d="M155.932 344.285L151.375 341.72L153.653 340.438L158.068 343.002L155.932 344.285Z" fill="#42E8E0"/>
    <path d="M169.176 351.98L158.211 345.71L160.489 344.428L171.312 350.697L169.176 351.98Z" fill="#42E8E0"/>
    <path d="M182.276 359.531L171.453 353.261L173.589 352.121L184.554 358.391L182.276 359.531Z" fill="#42E8E0"/>
    <path d="M219.299 363.378L214.742 360.814L216.878 359.531L221.435 362.096L219.299 363.378Z" fill="#42E8E0"/>
    <path d="M232.401 371.073L221.578 364.804L223.857 363.521L234.679 369.791L232.401 371.073Z" fill="#42E8E0"/>
    <path d="M245.651 378.624L234.828 372.355L236.964 371.215L247.787 377.484L245.651 378.624Z" fill="#42E8E0"/>
    <path d="M152.229 353.831L141.406 347.562L143.542 346.422L154.365 352.691L152.229 353.831Z" fill="#42E8E0"/>
    <path d="M157.924 357.252L154.648 355.257L156.784 353.975L160.06 355.969L157.924 357.252Z" fill="#42E8E0"/>
    <path d="M163.761 360.527L160.344 358.533L162.48 357.393L165.897 359.245L163.761 360.527Z" fill="#42E8E0"/>
    <path d="M174.298 366.654L166.039 361.952L168.317 360.67L176.435 365.372L174.298 366.654Z" fill="#42E8E0"/>
    <path d="M176.58 367.938L168.32 363.236L170.456 361.953L178.716 366.655L176.58 367.938Z" fill="#42E8E0"/>
    <path d="M198.652 363.094L195.234 361.241L197.513 359.959L200.788 361.954L198.652 363.094Z" fill="#42E8E0"/>
    <path d="M209.187 369.221L201.07 364.519L203.206 363.236L211.323 368.081L209.187 369.221Z" fill="#42E8E0"/>
    <path d="M211.47 370.502L203.211 365.8L205.347 364.518L213.606 369.362L211.47 370.502Z" fill="#42E8E0"/>
    <path d="M129.297 377.341L118.617 371.072L120.753 369.932L131.434 376.059L129.297 377.341Z" fill="#42E8E0"/>
    <path d="M136.422 381.474L131.438 378.624L133.574 377.342L138.558 380.192L136.422 381.474Z" fill="#42E8E0"/>
    <path d="M143.545 385.607L138.703 382.757L140.839 381.475L145.681 384.324L143.545 385.607Z" fill="#42E8E0"/>
    <path d="M155.219 392.302L145.82 386.888L147.956 385.605L157.355 391.02L155.219 392.302Z" fill="#42E8E0"/>
    <path d="M162.617 396.578L157.633 393.728L159.769 392.445L164.753 395.295L162.617 396.578Z" fill="#42E8E0"/>
    <path d="M174.156 403.275L164.758 397.861L167.036 396.578L176.293 401.993L174.156 403.275Z" fill="#42E8E0"/>
    <path d="M130.297 389.597L125.312 386.747L127.449 385.465L132.433 388.315L130.297 389.597Z" fill="#42E8E0"/>
    <path d="M141.834 396.293L132.578 390.878L134.714 389.596L144.113 395.01L141.834 396.293Z" fill="#42E8E0"/>
    <path d="M104.523 374.634L99.5391 371.784L101.675 370.645L106.659 373.494L104.523 374.634Z" fill="#42E8E0"/>
    <path d="M111.639 378.767L106.797 375.917L108.933 374.777L113.775 377.627L111.639 378.767Z" fill="#42E8E0"/>
    <path d="M123.321 385.465L113.922 380.193L116.058 378.91L125.457 384.325L123.321 385.465Z" fill="#42E8E0"/>
    <path d="M117.907 376.63L113.492 374.066L115.628 372.783L120.185 375.348L117.907 376.63Z" fill="#42E8E0"/>
    <path d="M131.151 384.323L120.328 378.054L122.464 376.771L133.287 383.041L131.151 384.323Z" fill="#42E8E0"/>
    <path d="M144.393 391.876L133.57 385.607L135.706 384.467L146.529 390.594L144.393 391.876Z" fill="#42E8E0"/>
    <path d="M96.6899 376.06L85.8672 369.79L88.0032 368.508L98.8259 374.777L96.6899 376.06Z" fill="#42E8E0"/>
    <path d="M102.385 379.336L99.1094 377.341L101.245 376.201L104.521 378.054L102.385 379.336Z" fill="#42E8E0"/>
    <path d="M108.08 382.615L104.805 380.763L106.941 379.48L110.216 381.333L108.08 382.615Z" fill="#42E8E0"/>
    <path d="M118.767 388.74L110.508 384.038L112.644 382.756L120.903 387.458L118.767 388.74Z" fill="#42E8E0"/>
    <path d="M120.898 390.024L112.781 385.321L114.917 384.039L123.034 388.741L120.898 390.024Z" fill="#42E8E0"/>
    <path d="M118.189 365.088L114.914 363.093L117.05 361.953L120.325 363.805L118.189 365.088Z" fill="#42E8E0"/>
    <path d="M128.726 371.215L120.609 366.513L122.745 365.23L130.862 369.933L128.726 371.215Z" fill="#42E8E0"/>
    <path d="M139.555 377.485L131.438 372.64L133.574 371.5L141.691 376.202L139.555 377.485Z" fill="#42E8E0"/>
    <path d="M173.015 408.406L168.031 405.556L170.167 404.273L175.151 407.123L173.015 408.406Z" fill="#42E8E0"/>
    <path d="M184.555 415.101L175.156 409.687L177.292 408.404L186.691 413.819L184.555 415.101Z" fill="#42E8E0"/>
    <path d="M154.648 397.86L146.531 393.157L148.667 391.875L156.927 396.577L154.648 397.86Z" fill="#42E8E0"/>
    <path d="M165.469 404.131L157.352 399.429L159.488 398.146L167.605 402.849L165.469 404.131Z" fill="#42E8E0"/>
    <path d="M126.025 350.412L122.75 348.56L124.886 347.277L128.161 349.13L126.025 350.412Z" fill="#42E8E0"/>
    <path d="M136.705 356.537L128.445 351.835L130.581 350.553L138.841 355.255L136.705 356.537Z" fill="#42E8E0"/>
    <path d="M147.39 362.809L139.273 358.107L141.409 356.824L149.669 361.526L147.39 362.809Z" fill="#42E8E0"/>
  </g>
  <path d="M13.6707 339.011C12.3891 339.011 11.1075 338.726 10.1107 338.156L1.56643 333.169C0.569602 332.599 0 331.887 0 330.889C0 329.892 0.71201 328.895 1.99364 328.04L27.6263 313.221C30.0472 311.796 33.6073 311.653 35.7433 312.936L44.2876 317.923C45.2844 318.493 45.7116 319.205 45.7116 320.203C45.7116 321.2 44.9996 322.198 43.718 323.053L18.0853 337.871C16.946 338.584 15.3796 339.011 13.6707 339.011ZM32.3257 312.793C30.9016 312.793 29.3352 313.221 28.0535 313.791L2.42086 328.61C1.28163 329.322 0.712019 330.035 0.712019 330.889C0.712019 331.602 1.13921 332.172 1.85123 332.599L10.3955 337.587C12.2467 338.726 15.6644 338.584 17.9429 337.302L43.5755 322.483C44.7148 321.77 45.2844 321.058 45.2844 320.203C45.2844 319.49 44.8572 318.92 44.1452 318.493L35.6009 313.506C34.7465 313.078 33.6073 312.793 32.3257 312.793Z" fill="#42E8E0"/>
  <path d="M59.9528 365.657C58.6712 365.657 57.3895 365.372 56.3927 364.802L27.7696 348.273C26.7727 347.703 26.2031 346.99 26.2031 345.993C26.2031 344.996 26.9151 343.998 28.1968 343.143L53.8294 328.324C56.2503 326.899 59.8104 326.757 61.9465 328.039L90.712 344.568C91.7088 345.138 92.1361 345.85 92.1361 346.848C92.1361 347.845 91.424 348.843 90.1424 349.698L64.5097 364.517C63.2281 365.229 61.5193 365.657 59.9528 365.657ZM58.5288 327.897C57.1047 327.897 55.5383 328.324 54.2567 328.894L28.624 343.713C27.4848 344.426 26.9151 345.138 26.9151 345.993C26.9151 346.705 27.3424 347.275 28.0544 347.703L56.8199 364.232C58.6712 365.372 62.0889 365.229 64.3673 363.947L90 349.128C91.1392 348.415 91.7089 347.703 91.7089 346.848C91.7089 346.135 91.2817 345.565 90.5696 345.138L61.8041 328.609C60.8072 328.182 59.668 327.897 58.5288 327.897Z" fill="#42E8E0"/>
  <path d="M102.388 341.007C100.964 341.007 99.682 340.722 98.6852 340.152L44.1446 308.661C43.1477 308.091 42.5781 307.236 42.5781 306.381C42.5781 305.242 43.4325 304.244 44.7142 303.389L97.9732 272.611C100.536 271.186 104.239 271.044 106.517 272.326L161.058 303.817C162.055 304.387 162.624 305.242 162.624 306.096C162.624 307.236 161.77 308.234 160.488 309.089L107.229 339.867C105.805 340.722 104.097 341.007 102.388 341.007ZM98.97 339.724C100.964 340.864 104.524 340.722 106.802 339.439L160.061 308.661C161.2 307.949 161.912 307.094 161.912 306.239C161.912 305.527 161.485 304.957 160.631 304.387L106.09 272.896C104.097 271.756 100.536 271.899 98.258 273.181L44.999 303.959C43.8598 304.672 43.1477 305.527 43.1477 306.381C43.1477 307.094 43.575 307.664 44.4294 308.234L98.97 339.724Z" fill="#42E8E0"/>
  <path d="M503.953 279.594L477.323 264.633C471.342 261.355 466.073 253.946 464.222 246.394L441.152 151.211C438.447 139.954 429.333 131.832 422.925 131.547C419.65 131.404 417.371 133.114 416.232 136.677L409.254 158.05C408.4 160.472 406.976 162.182 404.839 163.037C402.419 164.035 399.286 163.465 396.01 161.612L391.169 158.905C385.473 155.628 380.631 148.788 378.495 141.664C375.504 130.835 367.103 123.425 360.979 122.998C357.989 122.713 355.71 124.137 354.429 126.845L346.881 142.946C345.884 144.941 344.46 146.223 342.609 146.936C340.188 147.648 337.198 147.078 334.207 145.368L328.653 142.234C322.673 138.814 317.404 131.262 315.695 123.568L292.625 20.6897C290.062 9.43297 281.091 1.02606 274.54 0.598586C271.407 0.456096 268.986 2.02349 267.847 5.30076L230.822 107.466C229.968 109.746 228.401 111.456 226.408 112.168C223.987 113.023 220.854 112.596 217.721 110.743L198.781 99.7717L199.066 99.2017L218.006 110.173C220.996 111.883 223.844 112.453 226.123 111.598C227.974 110.886 229.256 109.461 230.11 107.324L267.42 5.15827C268.701 1.59602 271.265 -0.256354 274.825 0.0286259C281.518 0.456096 290.916 9.0055 293.48 20.5472L316.549 123.425C318.258 130.835 323.385 138.244 329.223 141.664L334.777 144.799C337.625 146.508 340.473 146.936 342.609 146.223C344.318 145.653 345.742 144.514 346.596 142.661L354.144 126.56C355.568 123.568 358.131 122 361.406 122.285C367.672 122.855 376.359 130.265 379.492 141.521C381.485 148.503 386.327 155.343 391.738 158.478L396.58 161.185C399.571 162.895 402.561 163.465 404.839 162.467C406.691 161.755 408.115 160.187 408.827 157.908L415.805 136.534C416.944 132.829 419.65 130.977 423.067 130.977C429.903 131.262 439.016 139.384 441.864 151.068L464.934 246.251C466.785 253.661 471.912 260.928 477.608 264.205L504.237 279.167L503.953 279.594Z" fill="#42E8E0"/>
  <path d="M483.737 291.135L457.108 276.174C451.127 272.896 445.858 265.487 444.007 257.935L420.937 162.752C418.232 151.495 409.118 143.373 402.71 143.088C399.434 142.945 397.156 144.655 396.017 148.218L389.039 169.591C388.184 172.013 386.76 173.723 384.624 174.578C382.204 175.576 379.071 175.006 375.795 173.153L370.954 170.446C365.4 167.169 360.273 160.329 358.28 153.205C355.289 142.376 346.887 134.966 340.764 134.539C337.773 134.254 335.495 135.678 334.213 138.386L326.666 154.487C325.669 156.482 324.245 157.764 322.394 158.477C319.973 159.189 316.983 158.619 313.992 156.91L308.438 153.775C302.457 150.355 297.188 142.803 295.48 135.109L272.41 32.2307C269.847 20.974 260.875 12.5671 254.325 12.1396C251.192 11.9971 248.771 13.5645 247.632 16.8418L210.322 119.007C209.468 121.287 207.901 122.997 205.908 123.709C203.487 124.564 200.354 124.137 197.221 122.284L178.281 111.313L178.566 110.743L197.506 121.714C200.496 123.424 203.344 123.852 205.623 123.139C207.474 122.427 208.756 121.002 209.61 118.865L246.92 16.6993C248.202 13.137 250.907 11.2847 254.325 11.5696C261.018 11.9971 270.416 20.5465 272.98 32.0882L296.049 134.966C297.758 142.376 302.885 149.785 308.723 153.205L314.277 156.34C317.125 158.049 319.973 158.477 322.109 157.764C323.818 157.195 325.242 156.055 326.096 154.202L333.644 138.101C335.068 135.109 337.631 133.541 340.906 133.826C347.172 134.396 355.859 141.806 358.992 153.062C360.985 160.044 365.827 166.884 371.238 170.019L376.08 172.726C379.071 174.436 382.061 175.006 384.34 174.008C386.191 173.296 387.615 171.728 388.327 169.449L395.305 148.075C396.444 144.37 399.15 142.376 402.567 142.518C409.403 142.803 418.516 150.925 421.365 162.609L444.434 257.792C446.285 265.202 451.412 272.469 457.108 275.746L483.737 290.708V291.135Z" fill="#42E8E0"/>
  <path d="M271.107 0.717697L250.742 12.4473L251.026 12.9412L271.391 1.21168L271.107 0.717697Z" fill="#42E8E0"/>
  <path d="M357.109 123.061L336.5 134.938L336.784 135.431L357.393 123.555L357.109 123.061Z" fill="#42E8E0"/>
  <path d="M398.863 144.371L398.578 143.801L419.939 131.547L420.366 132.117L398.863 144.371Z" fill="#42E8E0"/>
  <path d="M503.953 279.594L477.323 264.633C471.342 261.355 466.073 253.946 464.222 246.394L441.152 151.211C438.447 139.954 429.333 131.832 422.925 131.547C419.65 131.404 417.371 133.114 416.232 136.677L409.254 158.05C408.4 160.472 406.976 162.182 404.839 163.037C402.419 164.035 399.286 163.465 396.01 161.612L391.169 158.905C385.473 155.628 380.631 148.788 378.495 141.664C375.504 130.835 367.103 123.425 360.979 122.998C357.989 122.713 355.71 124.137 354.429 126.845L346.881 142.946C345.884 144.941 344.46 146.223 342.609 146.936C340.188 147.648 337.198 147.078 334.207 145.368L328.653 142.234C322.673 138.814 317.404 131.262 315.695 123.568L292.625 20.6897C290.062 9.43297 281.091 1.02606 274.54 0.598586C271.407 0.456096 268.986 2.02349 267.847 5.30076L230.822 107.466C229.968 109.746 228.401 111.456 226.408 112.168C223.987 113.023 220.854 112.596 217.721 110.743L198.781 99.7717L199.066 99.2017L218.006 110.173C220.996 111.883 223.844 112.453 226.123 111.598C227.974 110.886 229.256 109.461 230.11 107.324L267.42 5.15827C268.701 1.59602 271.265 -0.256354 274.825 0.0286259C281.518 0.456096 290.916 9.0055 293.48 20.5472L316.549 123.425C318.258 130.835 323.385 138.244 329.223 141.664L334.777 144.799C337.625 146.508 340.473 146.936 342.609 146.223C344.318 145.653 345.742 144.514 346.596 142.661L354.144 126.56C355.568 123.568 358.131 122 361.406 122.285C367.672 122.855 376.359 130.265 379.492 141.521C381.485 148.503 386.327 155.343 391.738 158.478L396.58 161.185C399.571 162.895 402.561 163.465 404.839 162.467C406.691 161.755 408.115 160.187 408.827 157.908L415.805 136.534C416.944 132.829 419.65 130.977 423.067 130.977C429.903 131.262 439.016 139.384 441.864 151.068L464.934 246.251C466.785 253.661 471.912 260.928 477.608 264.205L504.237 279.167L503.953 279.594Z" fill="#42E8E0"/>
  <path d="M483.737 291.135L457.108 276.174C451.127 272.896 445.858 265.487 444.007 257.935L420.937 162.752C418.232 151.495 409.118 143.373 402.71 143.088C399.434 142.945 397.156 144.655 396.017 148.218L389.039 169.591C388.184 172.013 386.76 173.723 384.624 174.578C382.204 175.576 379.071 175.006 375.795 173.153L370.954 170.446C365.4 167.169 360.273 160.329 358.28 153.205C355.289 142.376 346.887 134.966 340.764 134.539C337.773 134.254 335.495 135.678 334.213 138.386L326.666 154.487C325.669 156.482 324.245 157.764 322.394 158.477C319.973 159.189 316.983 158.619 313.992 156.91L308.438 153.775C302.457 150.355 297.188 142.803 295.48 135.109L272.41 32.2307C269.847 20.974 260.875 12.5671 254.325 12.1396C251.192 11.9971 248.771 13.5645 247.632 16.8418L210.322 119.007C209.468 121.287 207.901 122.997 205.908 123.709C203.487 124.564 200.354 124.137 197.221 122.284L178.281 111.313L178.566 110.743L197.506 121.714C200.496 123.424 203.344 123.852 205.623 123.139C207.474 122.427 208.756 121.002 209.61 118.865L246.92 16.6993C248.202 13.137 250.907 11.2847 254.325 11.5696C261.018 11.9971 270.416 20.5465 272.98 32.0882L296.049 134.966C297.758 142.376 302.885 149.785 308.723 153.205L314.277 156.34C317.125 158.049 319.973 158.477 322.109 157.764C323.818 157.195 325.242 156.055 326.096 154.202L333.644 138.101C335.068 135.109 337.631 133.541 340.906 133.826C347.172 134.396 355.859 141.806 358.992 153.062C360.985 160.044 365.827 166.884 371.238 170.019L376.08 172.726C379.071 174.436 382.061 175.006 384.34 174.008C386.191 173.296 387.615 171.728 388.327 169.449L395.305 148.075C396.444 144.37 399.15 142.376 402.567 142.518C409.403 142.803 418.516 150.925 421.365 162.609L444.434 257.792C446.285 265.202 451.412 272.469 457.108 275.746L483.737 290.708V291.135Z" fill="#42E8E0"/>
  <path opacity="0.5" d="M199.078 99.4859L218.018 110.458C223.714 113.735 228.698 112.452 230.549 107.465L267.859 5.29995C272.131 -6.38424 289.505 4.16002 293.207 20.6889L316.276 123.567C317.985 131.119 323.112 138.528 329.093 141.948L334.647 145.083C340.058 148.217 344.757 147.22 346.893 142.803L354.441 126.701C359.14 116.727 374.947 126.132 379.219 141.52C381.213 148.645 386.197 155.484 391.75 158.619L396.592 161.327C402.431 164.746 407.557 163.321 409.266 157.907L416.244 136.533C420.089 124.422 437.604 134.538 441.592 151.067L464.661 246.251C466.512 253.803 471.639 261.07 477.62 264.347L504.249 279.308L199.078 99.4859Z" fill="url(#paint0_linear_3984_51988)"/>
  <path opacity="0.5" d="M178.852 110.886L197.791 121.858C203.487 125.135 208.472 123.853 210.323 118.866L247.633 16.7003C251.905 5.01615 269.278 15.5604 272.98 32.0893L296.05 134.967C297.759 142.519 302.885 149.929 308.866 153.348L314.42 156.483C319.831 159.618 324.531 158.62 326.667 154.203L334.214 138.102C338.913 128.128 354.72 137.532 358.992 152.921C360.986 160.045 365.97 166.885 371.524 170.02L376.366 172.727C382.204 176.147 387.331 174.722 389.039 169.307L396.017 147.934C399.862 135.822 417.378 145.939 421.365 162.468L444.435 257.651C446.286 265.203 451.412 272.47 457.393 275.747L484.023 290.709L178.852 110.886Z" fill="url(#paint1_linear_3984_51988)"/>
  <path d="M319.551 324.194C319.551 326.902 317.415 329.039 314.709 329.039C312.003 329.039 309.867 326.902 309.867 324.194C309.867 321.487 312.003 319.35 314.709 319.35C317.415 319.35 319.551 321.487 319.551 324.194Z" fill="#24126A"/>
  <path d="M367.824 269.479C367.824 272.187 365.688 274.324 362.982 274.324C360.277 274.324 358.141 272.187 358.141 269.479C358.141 266.772 360.277 264.635 362.982 264.635C365.688 264.635 367.824 266.772 367.824 269.479Z" fill="#24126A"/>
  <path d="M378.363 306.955C378.363 309.662 376.227 311.799 373.521 311.799C370.816 311.799 368.68 309.662 368.68 306.955C368.68 304.247 370.816 302.11 373.521 302.11C376.085 301.967 378.363 304.247 378.363 306.955Z" fill="#24126A"/>
  <path d="M272.558 297.693C272.558 300.4 270.422 302.537 267.717 302.537C265.011 302.537 262.875 300.4 262.875 297.693C262.875 294.985 265.011 292.848 267.717 292.848C270.28 292.706 272.558 294.985 272.558 297.693Z" fill="#24126A"/>
  <path d="M302.746 264.491C302.746 267.198 300.61 269.336 297.904 269.336C295.199 269.336 293.062 267.198 293.062 264.491C293.062 261.784 295.199 259.646 297.904 259.646C300.61 259.646 302.746 261.784 302.746 264.491Z" fill="#24126A"/>
  <path d="M321.549 282.73L267.721 293.132C267.436 293.132 267.293 293.132 267.009 293.275V292.847L264.445 292.135V295.127C264.445 295.27 264.445 295.412 264.445 295.555C264.73 296.694 266.724 297.549 268.717 297.407L322.546 287.005L321.549 282.73Z" fill="url(#paint2_linear_3984_51988)"/>
  <path d="M366.687 264.207L364.978 265.632C363.554 265.062 361.418 265.204 359.994 266.059L321.688 282.731L327.099 285.866L365.405 269.194C366.26 268.624 366.687 268.054 366.687 267.342V264.207Z" fill="url(#paint3_linear_3984_51988)"/>
  <path d="M301.472 260.503C300.475 259.363 298.196 258.935 296.345 259.505C296.06 259.505 295.918 259.648 295.776 259.79C295.633 259.648 295.633 259.505 295.491 259.363C295.206 259.078 294.352 258.508 294.352 258.508V261.5C294.352 261.785 294.494 262.07 294.779 262.498L319.557 285.153L326.392 283.159L301.472 260.503Z" fill="url(#paint4_linear_3984_51988)"/>
  <path d="M376.942 301.682L376.087 301.967L375.518 303.107C375.375 302.964 375.09 302.964 374.806 302.822L326.246 283.016L322.828 286.863L371.388 306.669C373.239 307.239 375.518 306.811 376.514 305.672C376.799 305.387 376.942 304.959 376.942 304.674V301.682Z" fill="url(#paint5_linear_3984_51988)"/>
  <path d="M319.552 285.154L311.577 319.352L311.008 319.067V322.202C311.15 323.199 312.432 324.054 314.141 324.197C316.277 324.339 318.128 323.627 318.413 322.344L326.957 285.724L319.552 285.154Z" fill="url(#paint6_linear_3984_51988)"/>
  <path d="M374.957 299.83L329.957 281.449L365.558 265.917C367.125 265.062 367.267 263.637 365.986 262.783L365.558 262.498C364.134 261.643 361.713 261.785 360.147 262.783L324.546 278.314L301.619 257.368C300.622 256.228 298.344 255.801 296.493 256.371C294.641 256.94 293.929 258.223 294.784 259.363L317.711 280.309L267.727 289.998C265.591 290.141 264.309 291.281 264.594 292.563C264.879 293.703 266.873 294.558 268.866 294.415L318.85 284.726L310.875 318.639C310.59 319.779 312.015 320.919 314.008 321.203C316.144 321.346 317.996 320.634 318.28 319.351L326.255 285.438L371.254 303.82C373.106 304.39 375.384 303.962 376.381 302.822C377.52 301.682 376.808 300.4 374.957 299.83ZM324.973 281.591L324.119 282.589L322.268 282.446L321.983 281.449L323.692 281.021L324.973 281.591Z" fill="url(#paint7_linear_3984_51988)"/>
  <path d="M323.394 284.44C321.258 284.44 319.406 282.73 319.406 280.45V234.996H327.238V280.45C327.381 282.588 325.672 284.44 323.394 284.44Z" fill="#24126A"/>
  <path d="M302.6 180.85C302.458 179.852 301.888 178.855 300.607 178.142L299.752 177.715C296.762 176.005 291.351 176.148 287.79 178.142L263.012 192.534C261.161 193.674 260.164 194.956 260.164 196.239V200.513C260.164 201.653 260.876 202.651 262.158 203.506L263.012 203.933C266.003 205.643 271.414 205.501 274.974 203.506L299.752 189.114C301.604 188.117 302.6 186.692 302.6 185.409V180.85Z" fill="#5351AF"/>
  <path d="M262.871 199.8L262.017 199.372C259.026 197.663 259.311 194.528 262.871 192.533L287.649 178.141C291.209 176.147 296.478 175.862 299.611 177.714L300.466 178.141C303.456 179.851 303.171 182.986 299.611 184.981L274.833 199.372C271.273 201.367 266.004 201.652 262.871 199.8Z" fill="url(#paint8_linear_3984_51988)"/>
  <path d="M315.411 219.892L263.434 249.957C260.87 251.382 258.734 249.815 258.734 246.395C258.734 242.975 260.87 238.986 263.434 237.418L322.958 203.078V205.5C323.101 210.915 319.683 217.47 315.411 219.892Z" fill="#515151"/>
  <path d="M319.26 91.6509C317.409 90.6535 315.13 90.796 312.567 92.2209L311 93.0758C305.304 96.3531 300.605 105.33 300.605 113.024V215.902L314.418 207.923V211.2L297.899 224.737L260.305 249.957L313.279 279.88L343.753 256.512L361.127 241.693L371.949 121.289L319.26 91.6509Z" fill="url(#paint9_linear_3984_51988)"/>
  <path d="M280.535 261.499C280.535 261.499 279.111 257.794 281.96 254.944C284.808 252.094 299.333 245.967 300.472 245.397C301.469 244.685 306.738 240.838 306.738 240.838L308.304 237.275C308.304 237.275 278.542 240.125 278.257 240.695C277.83 241.123 264.301 253.234 264.729 253.804C265.156 254.374 273.985 256.512 273.985 256.512L275.694 258.934L280.535 261.499Z" fill="#2D2D2D"/>
  <path d="M365.258 122.001L363.692 122.856C357.996 126.133 353.296 135.11 353.296 142.805V245.683L316.129 267.199C313.566 268.623 311.43 272.613 311.43 276.175C311.43 279.595 313.566 281.163 316.129 279.738L368.106 249.672C372.236 247.25 375.654 240.838 375.654 235.138V232.858V129.981C375.796 122.286 371.097 118.724 365.258 122.001Z" fill="#5351AF"/>
  <path d="M266.44 283.87C266.44 283.87 258.75 288.858 256.187 291.707C253.624 294.557 248.497 300.542 250.633 303.391C252.769 306.241 259.89 307.809 267.579 300.684C275.269 293.56 273.133 293.132 279.541 289.712C286.092 286.15 287.801 282.445 287.089 280.166C286.234 278.028 283.101 274.181 281.25 275.036C279.541 275.748 266.44 283.87 266.44 283.87Z" fill="#160A5B"/>
  <path d="M303.75 304.532C303.75 304.532 301.045 310.659 299.621 312.654C298.197 314.649 291.361 326.191 294.921 328.898C298.482 331.605 305.317 330.893 310.728 325.051C316.14 319.209 317.279 312.084 318.56 309.804C319.842 307.524 323.26 301.255 321.693 297.693C320.127 294.13 319.842 293.418 319.842 293.418L303.75 304.532Z" fill="#160A5B"/>
  <path d="M275.976 218.181C275.976 218.181 253.191 240.695 249.489 251.951C249.489 251.951 247.922 258.078 252.337 262.781C256.751 267.625 266.15 283.157 266.15 283.157C266.15 283.157 273.128 291.564 282.099 284.866C282.099 284.866 286.229 278.312 283.666 274.037C281.102 269.763 274.552 255.941 274.552 255.941C274.552 255.941 289.219 245.824 296.34 243.402C303.602 240.837 307.447 238.842 307.447 238.842C307.447 238.842 306.165 245.682 300.896 252.236C295.627 258.933 286.798 269.478 289.789 277.03C292.779 284.439 294.488 286.719 297.194 290.994C299.9 295.268 302.605 304.245 304.884 305.1C307.305 306.097 318.127 307.095 319.836 299.97C321.545 292.846 316.134 279.024 313.713 274.465C313.713 274.465 343.19 240.41 345.896 236.705C348.459 233 285.09 212.482 275.976 218.181Z" fill="#24126A"/>
  <path d="M283.52 274.18C280.957 269.906 274.406 256.084 274.406 256.084C274.406 256.084 289.074 245.967 296.194 243.545C303.457 240.98 307.302 238.985 307.302 238.985C308.726 237.133 313.14 229.723 315.134 224.024C298.473 219.179 280.53 215.474 275.973 218.324C277.539 222.314 286.084 222.314 286.084 222.314C286.084 222.314 289.216 230.008 291.352 231.006C293.489 232.003 298.473 230.863 298.473 230.863C298.473 230.863 297.618 232.146 294.058 234.711C290.498 237.275 268.141 255.657 268.141 255.657C268.141 255.657 269.422 256.369 275.403 267.198C281.384 278.028 282.096 285.152 282.096 285.152C282.096 285.152 286.084 278.455 283.52 274.18Z" fill="#160A5B"/>
  <path d="M333.937 230.151C320.836 228.868 305.456 228.726 308.874 235.708C314.712 247.392 326.532 247.962 326.532 247.962C326.39 252.237 308.447 273.04 308.447 273.04C308.447 273.04 308.447 273.04 312.719 281.162C316.991 289.284 316.421 304.245 316.421 304.245C317.988 303.39 319.269 301.966 319.839 299.971C321.548 292.846 316.136 279.025 313.716 274.465C313.716 274.465 343.193 240.41 345.899 236.705C346.468 235.708 341.484 233.143 333.937 230.151Z" fill="#160A5B"/>
  <path d="M252.913 158.336L256.474 155.629C256.474 155.629 275.413 145.084 281.679 141.807C285.097 139.955 288.657 136.677 291.078 134.113C293.498 131.548 296.916 130.123 300.476 130.123L333.514 129.98C333.514 129.98 337.359 136.108 338.64 137.39C339.637 138.245 348.609 145.797 355.017 152.066C358.577 155.486 361.14 159.761 362.564 164.606C366.267 177.572 366.124 203.79 366.694 222.457C366.694 222.457 364.416 223.311 358.719 224.594C353.023 225.734 353.735 225.021 353.735 225.021C353.735 225.021 345.333 243.973 333.799 245.825C322.406 247.677 306.884 242.263 304.179 224.309C304.179 224.309 281.821 221.032 275.84 218.467C275.271 218.182 275.128 217.612 275.413 217.042C278.119 213.48 288.23 199.516 289.084 190.539C290.223 180.137 289.796 164.891 289.084 160.758C289.084 160.758 272.28 167.17 266.869 168.168C266.869 168.168 246.363 190.681 237.819 196.808C237.819 196.808 240.809 192.249 234.828 189.114L252.913 158.336Z" fill="#453C9E"/>
  <path d="M358.709 224.309C359.563 224.166 360.275 223.881 360.987 223.739L359.848 221.459L328.804 218.182L310.719 219.179L304.453 225.164C304.738 227.159 305.308 228.868 305.877 230.436C305.877 230.436 313.567 231.576 317.127 230.721C320.687 230.008 348.314 233.998 348.314 233.998C351.446 229.438 353.44 225.306 353.582 224.736C353.725 224.879 354.152 225.306 358.709 224.309Z" fill="#24126A"/>
  <path d="M316.848 213.337C316.848 213.194 316.705 213.194 316.563 213.194C314.996 213.194 305.313 212.909 301.753 211.627C297.766 210.202 293.493 210.487 293.351 210.772C293.066 211.057 286.516 213.764 286.088 214.904C285.804 215.901 285.092 219.464 285.946 220.746C286.8 222.028 287.228 222.883 287.228 222.883L287.94 223.026C287.94 223.026 288.794 224.736 289.364 225.448C289.649 225.733 289.791 226.018 289.933 226.303C290.361 227.158 291.073 228.726 291.357 228.726C291.785 228.726 293.778 229.153 294.348 229.01C294.775 228.868 295.202 227.586 294.917 227.016C294.917 226.873 294.917 226.731 295.06 226.731C296.057 226.588 298.62 226.303 302.18 226.588C306.452 227.016 312.576 224.166 313.145 223.881C313.145 223.881 313.145 223.881 313.288 223.881L319.411 223.311C319.553 223.311 319.696 223.168 319.696 223.026L316.848 213.337Z" fill="#FCD1C5"/>
  <path d="M309.587 149.216C309.587 149.216 304.46 168.309 309.872 187.973C309.872 187.973 329.808 150.783 331.944 144.798C334.08 138.814 334.935 134.539 332.941 132.259C330.948 130.122 312.862 141.236 312.862 141.236L309.587 149.216Z" fill="#F0F6FF"/>
  <path d="M314.713 179.141C314.713 179.141 318.558 167.457 317.846 163.752C317.134 160.047 316.279 157.34 316.279 157.34L319.697 154.205L321.263 157.34C321.263 157.34 328.811 151.783 329.238 150.785C329.238 150.785 323.115 154.917 321.263 155.63C321.263 155.63 320.409 154.205 319.127 153.635C317.988 153.065 314.998 157.197 314.998 157.197L314.428 164.179L311.438 180.566L312.434 182.988L314.713 179.141Z" fill="#C4CCD6"/>
  <path d="M311.293 149.502C311.293 149.502 310.581 157.054 311.151 157.482C311.72 158.052 314.141 158.052 315.138 157.482C316.277 156.912 318.983 153.634 318.983 153.634C318.983 153.634 315.707 147.65 311.293 149.502Z" fill="#24126A"/>
  <path d="M315.416 156.057C315.416 156.057 317.41 161.329 315.559 168.453C313.565 175.72 312.853 182.275 312.853 182.275L309.862 187.832C309.862 187.832 306.16 177.003 307.442 166.031C308.011 161.186 311.714 156.769 311.714 156.769L315.416 156.057Z" fill="#24126A"/>
  <path d="M300.19 118.724C300.19 118.724 299.336 123.426 299.621 124.281C299.905 125.136 301.187 125.706 300.902 127.558C300.617 129.41 301.614 134.825 302.184 136.535C302.184 136.535 301.757 138.53 302.326 139.1C302.896 139.67 303.608 139.67 304.035 140.525C304.605 141.38 304.747 146.082 306.598 147.649C308.45 149.217 311.013 149.502 312.295 149.217C313.576 148.932 314.858 147.934 314.858 147.934L317.706 149.074C317.706 149.074 332.516 144.942 332.089 134.398V133.258C332.089 133.258 333.085 131.833 333.513 130.835C333.798 129.838 336.218 125.563 335.079 123.711C335.079 123.711 340.775 101.055 323.117 99.63C305.317 98.4901 302.611 110.887 300.19 118.724Z" fill="#FCD1C5"/>
  <path d="M332.082 134.54C331.37 133.97 330.658 133.685 330.089 133.828C328.095 134.255 328.522 129.98 328.522 129.98C328.522 129.98 328.095 130.693 327.098 136.108C326.101 141.522 314.852 147.934 314.852 147.934L317.7 149.074C317.7 149.217 332.51 144.942 332.082 134.54Z" fill="#E2B1A6"/>
  <path d="M300.329 108.892C298.621 112.597 297.766 117.014 301.326 120.006C301.326 120.006 304.317 120.861 310.155 118.154C314 116.302 317.987 117.156 320.123 117.869C321.12 118.154 321.69 119.151 321.69 120.149L321.548 123.426C321.548 124.281 321.975 124.993 322.829 125.421L325.535 126.561L326.104 129.696C326.247 130.551 327.244 131.121 328.098 130.836L328.81 130.551C328.81 130.551 329.237 123.569 334.933 123.854C334.933 123.854 339.633 113.737 334.791 104.475C329.949 95.213 316.991 95.9255 314.143 96.9229C310.44 98.3478 311.01 98.0628 308.874 99.3452C305.171 101.768 302.181 105.045 300.329 108.892Z" fill="#AA8383"/>
  <path d="M347.469 180.137C347.469 180.137 344.763 199.943 343.624 205.5L334.938 210.06L350.317 209.062L347.469 180.137Z" fill="#24126A"/>
  <path d="M334.931 123.854C334.931 123.854 336.498 120.435 336.925 115.732C329.805 121.432 321.83 120.15 321.83 120.15L321.688 123.427C321.688 124.282 322.115 124.994 322.969 125.422L325.675 126.562L326.244 129.696C326.387 130.551 327.384 131.121 328.238 130.836L328.95 130.551C328.808 130.551 329.235 123.569 334.931 123.854Z" fill="#936D6D"/>
  <path d="M338.778 141.236C338.778 141.236 334.221 157.053 333.224 160.045L329.521 159.618L330.233 164.605L310.297 190.823L332.369 165.46L331.515 161.042L334.933 161.327L338.778 141.236Z" fill="#24126A"/>
  <path d="M319.268 226.873C319.268 226.873 365.834 225.306 367.116 224.451C368.255 223.596 368.54 211.627 368.398 204.645C368.255 199.8 368.398 180.707 364.268 167.312C367.543 178.712 365.834 218.751 364.268 220.746C362.844 222.741 318.414 224.024 318.414 224.024C318.841 225.733 319.268 226.873 319.268 226.873Z" fill="#263649"/>
  <path d="M227.703 189.684C227.703 189.684 227.56 190.824 225.567 191.963C223.573 193.103 218.304 195.668 217.45 196.381C216.595 197.093 212.893 200.37 212.75 200.798C212.608 201.225 211.469 204.93 211.469 205.215C211.469 205.5 211.896 207.21 211.896 207.21L210.757 212.767C210.757 212.767 209.333 214.904 210.899 215.474C212.466 216.044 213.462 214.334 213.462 214.192C213.462 214.192 215.883 213.052 217.592 211.627C219.301 210.202 226.421 204.503 227.56 204.93C228.7 205.215 227.703 207.352 227.133 207.637C226.564 207.922 222.861 211.627 224.428 214.192C225.994 216.757 226.991 212.767 228.13 211.912C229.127 211.057 231.405 207.922 232.829 207.495C234.253 207.067 236.674 201.938 237.101 199.658C237.386 197.378 239.095 195.953 239.665 195.098C240.234 194.386 238.383 188.686 238.383 188.686L231.405 186.549L228.984 188.116L227.703 189.684Z" fill="#FCD1C5"/>
  <path d="M360.711 159.618C359.286 157.339 358.574 159.048 356.581 160.901C353.875 163.466 350.6 167.455 348.891 172.585C345.758 181.847 346.897 204.788 347.894 208.065C347.894 208.065 318.701 212.91 316.708 212.767C314.714 212.625 319.271 227.016 319.271 227.016C319.271 227.016 365.837 225.449 367.119 224.594C368.258 223.739 368.543 211.77 368.4 204.788C368.258 198.803 368.4 171.588 360.711 159.618Z" fill="#334659"/>
  <path d="M319.268 226.873C319.268 226.873 365.834 225.306 367.116 224.451C368.255 223.596 368.54 211.627 368.398 204.645C368.255 199.8 368.398 180.707 364.268 167.312C367.543 178.712 365.834 218.751 364.268 220.746C362.844 222.741 318.414 224.024 318.414 224.024C318.841 225.733 319.268 226.873 319.268 226.873Z" fill="#263649"/>
  <path d="M373.804 221.744C373.661 220.747 373.092 219.749 371.81 219.037L370.955 218.61C367.965 216.9 362.554 217.042 358.994 219.037L334.215 233.429C332.364 234.568 331.367 235.851 331.367 237.133V241.408C331.367 242.548 332.079 243.545 333.361 244.4L334.215 244.828C337.206 246.538 342.617 246.395 346.177 244.4L370.955 230.009C372.807 229.011 373.804 227.586 373.804 226.304V221.744Z" fill="#5351AF"/>
  <path d="M334.215 240.837L333.36 240.41C330.37 238.7 330.655 235.565 334.215 233.57L358.993 219.179C362.553 217.184 367.822 216.899 370.955 218.751L371.809 219.179C374.8 220.888 374.515 224.023 370.955 226.018L346.177 240.41C342.474 242.262 337.205 242.547 334.215 240.837Z" fill="url(#paint10_linear_3984_51988)"/>
  <path opacity="0.5" d="M318.983 323.197L110.789 203.078L192.386 155.914L400.581 276.176L318.983 323.197Z" fill="url(#paint11_linear_3984_51988)"/>
  <path d="M110.789 195.811V203.078L318.983 323.197L400.581 276.175V268.765L318.983 315.93L110.789 195.811Z" fill="url(#paint12_linear_3984_51988)"/>
  <path d="M318.983 315.93L110.789 195.811L192.386 148.646L400.581 268.766L318.983 315.93Z" fill="url(#paint13_linear_3984_51988)"/>
  <path d="M318.983 315.217L111.501 195.383L110.789 195.81L318.983 315.929L400.581 268.765L399.869 268.48L318.983 315.217Z" fill="white"/>
  <path opacity="0.3" d="M294.204 228.156C294.204 228.156 300.043 230.293 304.457 229.438C308.872 228.726 330.375 228.298 330.375 228.298L326.957 226.303L319.41 221.031L300.755 222.314L293.492 224.878L294.204 228.156Z" fill="#180D5B"/>
  <path d="M316.848 213.337C316.848 213.194 316.705 213.194 316.563 213.194C314.996 213.194 305.313 212.909 301.753 211.627C297.766 210.202 293.493 210.487 293.351 210.772C293.066 211.057 286.516 213.764 286.088 214.904C285.804 215.901 285.092 219.464 285.946 220.746C286.8 222.028 287.228 222.883 287.228 222.883L287.94 223.026C287.94 223.026 288.794 224.736 289.364 225.448C289.649 225.733 289.791 226.018 289.933 226.303C290.361 227.158 291.073 228.726 291.357 228.726C291.785 228.726 293.778 229.153 294.348 229.01C294.775 228.868 295.202 227.586 294.917 227.016C294.917 226.873 294.917 226.731 295.06 226.731C296.057 226.588 298.62 226.303 302.18 226.588C306.452 227.016 312.576 224.166 313.145 223.881C313.145 223.881 313.145 223.881 313.288 223.881L319.411 223.311C319.553 223.311 319.696 223.168 319.696 223.026L316.848 213.337Z" fill="#FCD1C5"/>
  <path d="M360.711 159.618C359.286 157.339 358.574 159.048 356.581 160.901C353.875 163.466 350.6 167.455 348.891 172.585C345.758 181.847 346.897 204.788 347.894 208.065C347.894 208.065 318.701 212.91 316.708 212.767C314.714 212.625 319.271 227.016 319.271 227.016C319.271 227.016 365.837 225.449 367.119 224.594C368.258 223.739 368.543 211.77 368.4 204.788C368.258 198.803 368.4 171.588 360.711 159.618Z" fill="#4846A5"/>
  <path d="M319.268 226.873C319.268 226.873 365.834 225.306 367.116 224.451C368.255 223.596 368.54 211.627 368.398 204.645C368.255 199.8 368.398 180.707 364.268 167.312C367.543 178.712 365.834 218.751 364.268 220.746C362.844 222.741 318.414 224.024 318.414 224.024C318.841 225.733 319.268 226.873 319.268 226.873Z" fill="#24126A"/>
  <path opacity="0.3" d="M235.672 203.078C235.672 203.078 252.333 190.111 254.754 188.829C257.175 187.546 258.171 186.549 258.171 186.549L252.618 183.271L243.219 187.119L231.4 198.945L213.172 211.912V214.904C213.172 214.904 228.267 208.492 229.976 207.352C231.4 206.212 235.672 203.078 235.672 203.078Z" fill="#180D5B"/>
  <path opacity="0.63" d="M225.711 214.905C225.711 214.905 229.271 211.771 231.549 210.631C233.828 209.491 237.53 206.783 237.957 204.646C238.384 202.509 242.229 197.664 242.229 197.664L236.106 201.226L227.277 206.356L212.609 214.905C212.609 214.905 213.464 215.903 215.315 215.333C217.166 214.763 220.584 212.483 222.293 212.341C223.859 212.198 226.565 211.628 226.565 211.628L225.711 214.905Z" fill="#2D2D2D"/>
  <path d="M227.703 189.684C227.703 189.684 227.56 190.824 225.567 191.963C223.573 193.103 218.304 195.668 217.45 196.381C216.595 197.093 212.893 200.37 212.75 200.798C212.608 201.225 211.469 204.93 211.469 205.215C211.469 205.5 211.896 207.21 211.896 207.21L210.757 212.767C210.757 212.767 209.333 214.904 210.899 215.474C212.466 216.044 213.462 214.334 213.462 214.192C213.462 214.192 215.883 213.052 217.592 211.627C219.301 210.202 226.421 204.503 227.56 204.93C228.7 205.215 227.703 207.352 227.133 207.637C226.564 207.922 222.861 211.627 224.428 214.192C225.994 216.757 226.991 212.767 228.13 211.912C229.127 211.057 231.405 207.922 232.829 207.495C234.253 207.067 236.674 201.938 237.101 199.658C237.386 197.378 239.095 195.953 239.665 195.098C240.234 194.386 238.383 188.686 238.383 188.686L231.405 186.549L228.984 188.116L227.703 189.684Z" fill="#FCD1C5"/>
  <path d="M290.93 151.211C290.93 151.211 290.646 140.809 292.497 132.688C292.07 133.115 291.5 133.4 291.073 133.97C288.51 136.535 285.092 139.954 281.674 141.664C275.408 145.084 256.469 155.486 256.469 155.486L252.909 158.193C241.801 166.885 229.412 185.836 227.703 189.541C228.558 188.401 230.836 186.549 235.108 188.686C240.947 191.821 238.241 196.523 238.241 196.523C246.785 190.396 267.149 167.74 267.149 167.74C272.133 166.743 287.228 161.043 289.222 160.331C290.218 157.338 290.93 154.203 290.93 151.211Z" fill="#4846A5"/>
  <path d="M184.977 222.311L188.964 224.449L229.549 201.08C230.261 200.653 231.4 200.795 232.255 201.223L302.175 241.69C302.887 241.263 305.877 239.838 305.877 239.838L304.453 243.685C304.453 243.827 304.311 243.97 304.026 244.112L261.305 268.763C260.593 269.191 259.454 269.048 258.599 268.621L187.113 227.156C186.828 227.014 186.543 226.729 186.543 226.586L184.977 222.311Z" fill="url(#paint14_linear_3984_51988)"/>
  <path d="M185.548 223.025L258.886 265.344C259.74 265.772 260.88 265.914 261.592 265.487L305.31 240.266C306.022 239.839 305.879 239.126 305.167 238.699L231.829 196.379C230.975 195.952 229.836 195.809 229.124 196.237L185.406 221.457C184.694 221.885 184.836 222.597 185.548 223.025Z" fill="url(#paint15_linear_3984_51988)"/>
  <path d="M185.551 222.597L258.889 264.917C259.743 265.344 260.882 265.487 261.594 265.059L305.312 239.839C305.597 239.696 305.739 239.554 305.739 239.411C305.882 239.696 305.739 240.123 305.312 240.266L261.594 265.487C260.882 265.914 259.743 265.772 258.889 265.344L185.551 223.025C184.981 222.74 184.839 222.312 184.981 221.885C185.123 222.17 185.266 222.455 185.551 222.597Z" fill="white"/>
  <path d="M280.816 245.965L219.867 210.77C219.44 210.485 219.013 210.485 218.586 210.77L196.94 223.31C196.655 223.452 196.655 223.879 196.94 224.164L257.889 259.359C258.316 259.644 258.743 259.644 259.171 259.359L280.958 246.82C281.101 246.535 281.101 246.108 280.816 245.965Z" fill="#ADB1F2"/>
  <path d="M280.818 246.82L280.533 246.963L219.869 211.768C219.442 211.483 219.015 211.483 218.587 211.768L197.084 224.164L196.8 224.022C196.515 223.879 196.515 223.452 196.8 223.167L218.445 210.628C218.872 210.343 219.299 210.343 219.727 210.628L280.675 245.823C281.103 246.108 281.103 246.535 280.818 246.82Z" fill="#9198DB"/>
  <path d="M216.875 213.905L272.982 246.393L275.83 245.253L219.153 212.623L216.875 213.905Z" fill="#24126A"/>
  <path d="M211.039 217.325L260.738 245.966L263.159 244.541L213.46 215.9L211.039 217.325Z" fill="#24126A"/>
  <path d="M207.336 219.462L265.721 253.232L268.142 251.807L209.614 218.037L207.336 219.462Z" fill="#24126A"/>
  <path d="M203.492 221.601L262.02 255.371L264.441 254.088L205.913 220.176L203.492 221.601Z" fill="#24126A"/>
  <path d="M199.789 223.738L258.317 257.508L260.595 256.225L202.21 222.455L199.789 223.738Z" fill="#24126A"/>
  <path d="M272.984 246.394L275.405 247.676L277.684 246.394L275.405 244.969L272.984 246.394Z" fill="#24126A"/>
  <path d="M257.891 244.257L269.568 251.096L271.989 249.672L260.169 242.832L257.891 244.257Z" fill="#24126A"/>
  <path d="M259.028 230.15L242.651 220.603C241.939 220.175 241.939 219.605 242.651 219.32L253.901 212.766C254.613 212.338 255.61 212.338 256.18 212.766L272.556 222.313C273.268 222.74 273.268 223.31 272.556 223.595L261.306 230.15C260.736 230.577 259.74 230.577 259.028 230.15Z" fill="url(#paint16_linear_3984_51988)"/>
  <path d="M272.557 222.883L256.181 213.336C255.469 212.908 254.472 212.908 253.902 213.336L242.652 219.89C242.51 220.033 242.368 220.175 242.225 220.318C242.083 220.033 242.225 219.605 242.652 219.32L253.902 212.766C254.614 212.338 255.611 212.338 256.181 212.766L272.557 222.313C272.984 222.598 273.127 222.883 272.984 223.31C272.984 223.168 272.842 223.025 272.557 222.883Z" fill="#9198DB"/>
  <path d="M185.121 221.316L194.378 166.315L193.666 166.03L194.805 165.318C195.09 165.175 195.374 165.175 195.659 165.318L269.709 208.065C270.279 208.35 270.848 209.347 270.706 209.917L261.307 265.346C261.307 265.631 261.165 265.773 260.88 265.916L259.741 266.486L259.599 265.488L185.976 222.884C185.406 222.741 184.979 221.886 185.121 221.316Z" fill="url(#paint17_linear_3984_51988)"/>
  <path d="M269.292 209.632L270.574 209.062C270.716 209.347 270.716 209.632 270.716 209.917L261.318 265.346C261.318 265.631 261.175 265.774 260.89 265.916L259.751 266.486L259.609 265.489L255.906 263.351L269.292 209.632Z" fill="url(#paint18_linear_3984_51988)"/>
  <path d="M184.841 223.74L258.891 266.487C259.46 266.772 259.887 266.629 260.03 266.059L269.428 210.631C269.571 210.061 269.144 209.063 268.432 208.778L194.382 166.031C193.812 165.746 193.385 165.889 193.242 166.459L183.844 221.887C183.844 222.6 184.271 223.455 184.841 223.74Z" fill="#453C9E"/>
  <path opacity="0.2" d="M95.7101 330.713C67.8581 330.713 45.2796 317.643 45.2796 301.52C45.2796 285.398 67.8581 272.328 95.7101 272.328C123.562 272.328 146.141 285.398 146.141 301.52C146.141 317.643 123.562 330.713 95.7101 330.713Z" fill="#160A5B"/>
  <path d="M68.1999 298.393L67.9915 299.227L67.7831 298.601C67.7831 298.601 66.5328 302.98 67.5747 305.274C68.6167 307.567 70.0754 310.278 71.9509 313.197C74.0348 316.325 77.369 322.789 78.2026 324.04C79.0362 325.291 84.2459 330.087 90.706 330.921C97.1662 331.755 98.8333 327.585 98.4165 325.291C97.7913 322.998 94.4571 317.159 90.706 312.363C86.955 307.567 84.0376 301.312 84.0376 301.312L68.1999 298.393Z" fill="#160A5B"/>
  <path d="M87.5793 279.208C87.5793 279.208 87.3709 283.796 87.7877 285.464C88.2045 287.341 97.5821 287.966 100.916 288.383C104.251 288.8 110.086 291.511 111.961 292.553C113.837 293.596 125.923 295.056 127.382 290.051C128.841 285.047 121.13 280.877 116.129 279.625C110.919 278.374 102.583 275.455 102.583 275.455L87.5793 279.208Z" fill="#160A5B"/>
  <path d="M56.7357 193.092C56.7357 193.092 56.1105 204.977 59.6532 221.45C63.1958 238.131 62.5706 250.017 62.5706 250.017C62.5706 250.017 58.1944 269.409 61.5287 282.754C64.8629 296.308 67.7804 300.061 67.7804 300.061C67.7804 300.061 74.6573 310.487 84.2433 301.103C84.2433 301.103 79.2419 282.545 78.8251 267.741C78.8251 267.741 83.4097 257.106 85.0768 247.723C85.0768 247.723 86.3272 262.736 86.9524 268.783C86.9524 268.783 86.1188 277.75 88.2027 281.503C90.2866 285.256 100.289 286.299 103.415 279.835C106.541 273.371 100.706 276.498 102.582 247.515C102.582 247.515 111.542 235.421 112.793 213.318C114.043 191.632 113.835 183.083 112.584 178.913C111.334 174.742 92.1621 159.938 92.1621 159.938L81.1174 174.742L56.7357 193.092Z" fill="#24126A"/>
  <path d="M100.288 217.487C103.414 213.317 105.289 200.389 105.289 200.389C105.289 200.389 100.288 211.232 96.7451 214.359C93.2025 217.487 90.0766 223.951 89.243 228.121C88.6178 232.292 84.8668 247.931 84.8668 247.931C84.8668 247.931 86.1171 262.944 86.7423 268.991C86.7423 268.991 85.9088 277.957 87.9927 281.71C88.4094 282.544 89.243 283.17 90.0766 283.587C90.0766 283.378 89.6598 263.361 90.285 255.02C91.1185 246.679 97.1618 221.657 100.288 217.487Z" fill="#160A5B"/>
  <path d="M30.0672 109.061C30.0672 109.061 21.3148 125.533 20.4812 126.784C19.6476 128.036 3.39315 148.679 1.30925 160.564C1.30925 160.564 -0.149452 165.152 5.06031 169.322C10.2701 173.492 36.944 191.842 38.6112 192.05C40.2783 192.259 50.2811 187.254 50.9062 175.786C50.9062 175.786 29.8588 165.36 25.4826 160.147C25.4826 160.147 34.235 145.551 38.1944 141.381C39.2364 140.338 39.8615 138.461 40.2783 136.168C41.7371 126.784 38.6112 117.401 32.1511 111.146L30.0672 109.061Z" fill="#4846A5"/>
  <path d="M91.1294 71.1096C91.1294 71.1096 103.633 75.6969 107.801 74.2373C111.968 72.5692 122.388 71.3181 129.682 67.1477C136.767 63.1859 167.609 55.0538 172.193 54.6367C172.193 54.6367 172.193 54.8452 171.568 55.0538C170.735 55.4708 167.609 55.6793 166.775 59.2241C165.942 62.9774 168.026 67.3563 168.651 67.5648C169.276 67.7733 169.484 66.5222 172.402 65.2711C175.319 63.8115 177.195 64.02 177.195 64.02L178.445 65.4796L179.07 66.5222C179.07 66.5222 177.82 70.901 173.652 71.3181C169.693 71.5266 144.061 82.578 142.602 82.995C140.935 83.4121 119.262 93.0038 115.303 94.4635C111.135 95.9231 108.009 97.7997 108.009 97.7997C108.009 97.7997 95.2972 89.042 94.8804 89.042C94.4637 89.6676 91.1294 71.1096 91.1294 71.1096Z" fill="#24126A"/>
  <path d="M202.613 49.6308C202.197 49.8393 195.736 51.9245 195.736 51.9245C195.736 51.9245 198.445 53.1756 198.654 54.4267C198.862 55.6778 198.445 62.1418 198.237 62.5589C198.029 62.9759 196.778 63.81 196.362 64.0185C195.945 64.227 195.111 66.5207 194.069 66.3122C193.027 66.1037 192.819 64.8526 192.819 64.8526C192.819 64.8526 191.985 64.4355 191.777 64.4355C191.569 64.227 186.984 64.644 185.525 65.6866C184.066 66.7292 180.524 67.1462 179.065 66.7292C177.606 66.3122 175.523 65.2696 174.897 64.8526C174.897 64.8526 173.23 65.0611 172.397 65.4781C171.563 65.8951 168.854 67.7718 168.229 67.9803C167.604 68.1888 161.769 56.7204 171.98 54.6352C171.98 54.6352 176.148 54.2182 178.023 53.3841C179.899 52.5501 184.9 48.3797 186.776 48.3797C188.651 48.3797 190.735 49.0053 190.735 49.0053C190.735 49.0053 202.196 45.669 203.238 46.7116C204.489 47.9627 203.238 49.4223 202.613 49.6308ZM194.486 57.3459C193.027 57.3459 191.985 55.8863 191.985 55.8863C191.152 56.5119 190.11 55.6778 190.11 55.6778C190.11 55.8863 188.443 56.0948 188.443 56.0948C188.443 56.0948 187.818 56.7204 186.776 57.3459C185.942 57.9715 187.192 60.0567 187.192 60.0567C188.026 60.0567 189.068 59.6396 189.901 59.2226C190.735 58.8056 191.569 58.8056 192.194 58.597C193.027 58.597 194.486 57.3459 194.486 57.3459Z" fill="#FCD1C5"/>
  <path d="M112.797 179.331C111.546 175.16 92.3743 160.355 92.3743 160.355L86.9561 167.654L82.1631 186.837L57.1563 195.178C57.1563 195.178 58.1982 208.523 78.8289 207.063C99.2512 205.604 101.752 188.714 101.752 188.714C101.752 188.714 104.044 194.135 114.047 195.595C113.838 186.629 113.422 182.041 112.797 179.331Z" fill="#160A5B"/>
  <path d="M54.447 81.1177L50.9044 89.6669C50.9044 89.6669 34.6499 103.846 29.857 108.85C29.857 108.85 37.359 124.489 38.401 141.379C38.401 141.379 45.6947 147.635 47.7786 150.554C50.0709 153.473 55.489 167.235 57.1561 171.614C58.8233 176.201 53.4051 189.964 53.4051 189.964C53.4051 189.964 60.282 203.934 71.5351 203.309C82.9966 202.892 90.707 195.385 92.1657 182.457C93.6245 169.529 93.2077 167.652 93.2077 167.652C93.2077 167.652 98.2091 183.5 105.92 183.5C113.63 183.5 125.717 169.737 125.717 169.737C125.717 169.737 133.844 161.814 133.01 158.478C132.177 154.933 113.63 124.906 112.588 120.11C111.546 115.314 107.587 98.0076 107.587 98.0076L90.707 70.9004L80.4958 71.3174L54.447 81.1177Z" fill="#453C9E"/>
  <path d="M72.3746 200.389C83.2109 199.972 90.713 193.091 92.7969 181.205C92.7969 181.831 92.5885 182.248 92.5885 182.873C91.1298 196.01 83.2109 203.308 71.9578 203.725C60.4963 204.142 53.8279 190.38 53.8279 190.38C53.8279 190.38 54.2446 189.337 54.6614 187.878C56.1202 190.588 62.5803 200.806 72.3746 200.389Z" fill="url(#paint19_linear_3984_51988)"/>
  <path d="M54.4447 81.1191C54.4447 81.1191 54.2363 86.3321 56.1118 91.3365C57.9874 96.5494 64.0307 125.742 79.0348 135.959L84.8697 139.712L85.0781 120.737C85.0781 120.737 85.0781 109.269 82.5774 101.971C80.0767 94.6727 80.2851 86.1235 80.2851 86.1235C80.2851 86.1235 76.1173 84.8724 76.1173 85.081C76.1173 85.2895 54.4447 81.1191 54.4447 81.1191Z" fill="#F0F6FF"/>
  <path d="M72.587 94.4631C72.587 94.4631 75.2961 95.5057 76.338 93.8375C77.5884 92.1694 78.6303 88.6246 78.4219 86.9565C78.4219 86.9565 85.5072 87.3735 86.7576 83.6202C88.2163 79.8669 86.7576 79.0328 86.5492 77.7817C86.3408 76.5306 86.1324 73.6114 85.2989 71.3177V70.2751C85.2989 70.2751 86.7576 69.024 86.1324 67.7729C85.5073 66.5218 81.7562 62.56 81.3394 61.7259C80.9226 61.1004 81.5478 56.096 80.0891 53.5938C78.6304 51.0916 75.9213 47.7553 75.9213 47.7553C75.9213 47.7553 61.5423 36.2869 49.6641 47.7553C37.7858 59.2237 54.8738 80.701 54.8738 80.701C54.8738 80.701 56.1241 87.7905 59.4584 90.5013C62.5842 93.8375 72.587 94.4631 72.587 94.4631Z" fill="#FCD1C5"/>
  <path d="M62.1561 65.896C62.1561 65.479 62.1561 65.062 61.9477 64.6449C61.5309 63.3938 60.9058 59.8491 64.4484 57.3469C68.8246 54.0106 76.7434 51.2999 76.535 47.9636C76.3266 44.8358 64.24 36.9122 55.0708 41.0825C45.9016 45.2529 37.1492 56.0958 42.9841 67.5642C49.0275 79.2411 54.4456 81.1178 54.4456 81.1178C54.4456 81.1178 56.3211 80.7008 54.654 78.8241C52.9869 76.9474 50.0694 71.943 52.5701 70.4834C55.0708 69.0238 59.447 72.3601 60.0722 72.9856C60.2806 73.1941 60.4889 73.6112 60.6973 74.0282C61.1141 74.6538 61.7393 74.8623 62.3645 74.4453H62.5728C63.198 74.2367 63.4064 73.4027 63.198 72.9856L62.1561 70.0664C61.9477 69.6493 61.9477 69.2323 61.9477 68.6068L62.1561 65.896Z" fill="#AA8383"/>
  <path d="M72.1562 97.7988C72.1562 97.7988 68.8219 100.301 66.738 104.888C66.738 104.888 70.2807 101.135 72.3646 100.301C72.3646 100.301 76.324 102.178 76.324 103.429C76.324 104.68 76.5324 112.395 77.366 116.357C78.1995 120.527 77.9912 135.123 77.9912 135.123L80.4918 136.791L81.7422 130.327L81.3254 116.774L79.0331 104.471C79.0331 104.471 78.6163 99.884 78.4079 99.6755L72.1562 97.7988Z" fill="#C4CCD6"/>
  <path d="M72.1574 97.7992C72.1574 97.7992 75.9085 93.6289 77.9924 93.6289C79.8679 93.6289 80.9099 94.6715 80.9099 94.88C80.9099 95.0885 82.7854 101.553 82.7854 101.553C82.7854 101.553 86.328 113.021 85.9112 126.366C85.4944 139.92 85.0777 139.92 85.0777 139.92L80.2847 136.792C80.2847 136.792 81.7434 126.992 79.2427 115.94C76.742 104.889 79.0343 103.221 77.784 102.178C76.3253 100.927 71.5323 99.2589 72.1574 97.7992Z" fill="#24126A"/>
  <path d="M47.986 150.762C50.2783 153.681 55.4881 167.235 57.1552 171.822C57.3636 172.656 57.572 173.491 57.572 174.742C57.9888 175.159 58.4055 175.159 58.4055 175.159L60.9062 172.656C60.9062 172.656 58.8223 164.316 55.4881 153.89C52.1538 143.673 38.4001 141.379 38.4001 141.379C38.4001 141.379 45.9021 147.843 47.986 150.762Z" fill="#24126A"/>
  <path d="M51.1142 176.41C51.1142 176.41 55.2821 170.363 56.5324 169.529C56.5324 169.529 56.1156 171.197 58.4079 172.24C60.7002 173.283 72.5785 178.287 72.9952 178.704C73.412 179.33 72.9953 179.955 72.1617 180.164C72.1617 180.164 74.6624 180.998 75.7044 180.998C76.7463 180.998 77.9966 182.249 77.3715 183.5C76.7463 184.751 76.1211 184.543 76.1211 184.543C76.1211 184.543 76.3295 185.794 75.7044 186.211C74.8708 186.419 73.2036 186.628 73.2036 186.628C73.2036 186.628 73.6205 187.879 72.5785 188.504C71.5365 188.921 66.7435 189.547 66.7435 189.547C66.7435 189.547 62.9925 189.13 61.9506 189.13C60.9086 189.13 55.9072 190.381 53.8233 190.172C51.7394 189.755 44.8625 187.253 44.2374 186.836C43.1954 186.211 51.1142 176.41 51.1142 176.41Z" fill="#FCD1C5"/>
  <path d="M50.2739 92.5859L50.6907 100.301L54.8585 101.552L52.1494 103.846C52.1494 103.846 62.7773 130.119 77.1562 138.668C77.1562 138.668 63.4025 133.664 51.1074 104.054C51.1074 104.054 52.5662 102.386 52.983 101.969L50.0655 100.718L50.2739 92.5859Z" fill="#24126A"/>
  <path d="M86.5386 91.752C86.5386 91.752 91.3316 118.442 86.9554 138.877C86.9554 138.877 92.1651 129.076 87.7889 91.752H86.5386Z" fill="#24126A"/>
  <path d="M198.445 53.8024C197.612 52.7599 195.736 51.9258 195.736 51.9258C195.736 51.9258 190.526 54.011 189.693 54.428C189.693 54.428 195.111 54.011 198.445 53.8024Z" fill="#E2B1A6"/>
  <path d="M168.437 68.1898C168.645 68.1898 169.479 67.5642 170.312 66.9387C166.77 62.1428 170.312 55.2617 170.312 55.2617C162.81 58.3895 168.02 68.3983 168.437 68.1898Z" fill="#E2B1A6"/>
  <path d="M44.0231 186.627C44.4399 187.044 48.3993 188.503 51.3168 189.337C51.3168 189.337 53.4007 181.622 52.984 179.12C52.5672 176.618 51.5252 175.992 51.5252 175.992C51.3168 176.201 51.3168 176.409 51.3168 176.409C51.3168 176.409 43.1896 186.21 44.0231 186.627Z" fill="#E2B1A6"/>
  <path d="M51.1077 175.992C51.1077 175.992 52.1497 180.371 49.4406 183.916C46.5231 187.252 46.3148 187.878 46.3148 187.878H42.9805C42.9805 187.878 41.5217 182.456 41.7301 182.248C41.9385 182.039 51.1077 175.992 51.1077 175.992Z" fill="#4846A5"/>
  <path d="M81.9546 99.4668C81.9546 99.4668 84.872 117.816 84.0385 124.489C83.2049 131.37 83.4133 138.668 83.4133 138.668L84.4552 139.502L84.6636 139.711C84.6636 139.711 84.872 139.919 85.4972 126.157C85.9139 112.812 82.3713 101.343 82.3713 101.343C82.3713 101.343 82.3713 100.718 81.9546 99.4668Z" fill="#24126A"/>
  <path d="M81.1162 303.606C82.1581 302.98 82.9917 302.355 84.0336 301.312C84.0336 301.312 79.0322 282.754 78.6155 267.949C78.6155 267.949 83.2001 257.315 84.8672 247.932C84.4504 249.808 79.0322 260.026 76.5316 270.451C74.0309 281.086 81.1162 303.606 81.1162 303.606Z" fill="#160A5B"/>
  <path d="M61.5312 78.1992C61.5312 78.6163 62.7815 85.0803 65.2822 87.9995C67.7829 91.1273 69.8668 94.0465 69.8668 94.0465C71.5339 94.255 72.5759 94.255 72.5759 94.255C72.5759 94.255 75.285 95.2976 76.3269 93.6295C77.5773 91.9613 78.6192 88.4165 78.4108 86.7484C78.4108 86.7484 69.0333 85.7058 65.4906 83.2036C62.1564 81.1185 61.5312 78.6163 61.5312 78.1992Z" fill="#E2B1A6"/>
  <path d="M56.3304 169.528C56.3304 169.528 56.7473 170.779 56.9557 170.779L57.1641 169.945L56.7473 168.902L56.3304 169.528Z" fill="#1B2B3A"/>
  <path d="M84.8726 139.92C84.8726 139.92 91.5411 162.44 93.625 168.07L93.4166 173.491C93.4166 173.491 85.081 145.341 84.8726 139.92Z" fill="#24126A"/>
  <path d="M91.3324 147.843C91.7491 149.094 91.1239 150.554 89.8736 150.971C88.6233 151.388 87.3729 150.554 87.1645 149.303C86.7478 148.052 87.3729 146.592 88.6232 146.175C89.6652 145.758 90.9156 146.592 91.3324 147.843Z" fill="#24126A"/>
  <path d="M94.6605 157.644C95.0773 158.895 94.4521 160.355 93.2017 160.772C91.9514 161.189 90.7011 160.355 90.4927 159.103C90.0759 157.852 90.701 156.393 91.9514 155.976C92.9933 155.559 94.2437 156.393 94.6605 157.644Z" fill="#24126A"/>
  <path d="M62.1612 69.6486C61.9528 69.2316 61.9528 68.8146 61.9528 68.189V65.6868C61.9528 65.2698 61.9527 64.8527 61.7443 64.4357C61.536 64.0187 61.5359 63.6016 61.5359 62.7676C61.5359 62.7676 51.3248 70.2742 44.8647 70.4827C50.0745 79.2404 54.4507 80.9086 54.4507 80.9086C54.4507 80.9086 56.3262 80.4915 54.6591 78.6149C52.992 76.7382 50.0745 71.7338 52.5752 70.2742C55.0759 68.8146 59.4521 72.1508 60.0772 72.7764C60.2856 72.9849 60.494 73.4019 60.7024 73.819C61.1192 74.4445 61.7444 74.653 62.3696 74.236H62.5779C63.2031 74.0275 63.4115 73.1934 63.2031 72.7764L62.1612 69.6486Z" fill="#936D6D"/>
  <path opacity="0.2" d="M442.786 528.001C470.691 528.001 493.313 514.906 493.313 498.753C493.313 482.599 470.691 469.504 442.786 469.504C414.88 469.504 392.258 482.599 392.258 498.753C392.258 514.906 414.88 528.001 442.786 528.001Z" fill="#160A5B"/>
  <path d="M453.35 497.707C453.35 497.707 448.339 498.334 443.536 498.125C438.734 497.916 425.789 499.169 425.789 503.975C425.789 508.989 431.844 516.719 440.196 518.599C448.547 520.479 459.613 519.226 465.042 520.061C470.471 520.897 474.855 515.465 472.976 509.824C471.306 503.975 453.35 497.707 453.35 497.707Z" fill="#160A5B"/>
  <path d="M482.788 487.68C482.788 487.68 484.458 490.813 483.414 492.485C482.37 494.156 479.656 498.543 472.348 493.32C465.04 488.097 450.633 480.367 450.633 480.367C450.633 480.367 442.491 474.936 443.326 469.504C444.161 464.281 451.886 465.743 451.886 465.743L482.788 487.68Z" fill="#160A5B"/>
  <path d="M438.945 406.2C438.945 406.2 439.363 441.298 445.209 455.296C451.264 469.502 451.264 494.573 452.308 499.378C453.352 504.392 457.528 511.704 464.627 513.793C471.726 516.091 473.396 511.077 473.187 508.153C472.978 505.019 471.517 500.005 471.726 496.871C471.935 493.737 472.77 492.275 472.978 490.812C472.978 490.812 481.121 494.155 482.792 487.678C482.792 487.678 482.165 485.798 482.165 484.754C482.165 483.709 484.671 460.31 485.088 457.594C485.506 454.878 485.088 439.209 483.418 431.479C481.748 423.749 483.627 408.08 483.627 408.08L460.451 402.439L438.945 406.2Z" fill="#24126A"/>
  <path d="M483.628 431.272C481.958 423.542 483.837 407.873 483.837 407.873L481.749 407.455C481.541 409.544 479.87 423.542 481.541 430.645C483.211 438.375 483.629 453.835 483.211 456.76C482.793 459.685 480.079 483.084 480.079 483.919C480.079 484.964 480.705 486.844 480.705 486.844C479.035 493.321 470.892 489.978 470.892 489.978C470.683 491.441 469.848 492.903 469.639 496.037C469.431 499.379 471.101 504.394 471.101 507.318C471.31 510.452 469.639 515.257 462.54 512.959C462.332 512.959 462.123 512.75 461.914 512.75C462.749 513.168 463.584 513.586 464.628 514.004C471.727 516.302 473.398 511.288 473.189 508.363C472.98 505.229 471.519 500.215 471.727 497.081C471.936 493.948 472.771 492.067 472.98 490.605C472.98 490.605 481.123 494.157 482.793 487.889C482.793 487.889 482.167 486.009 482.167 484.964C482.167 483.919 484.672 460.521 485.09 457.805C485.716 454.671 485.299 439.002 483.628 431.272Z" fill="url(#paint20_linear_3984_51988)"/>
  <path d="M476.732 409.751C476.732 409.751 476.314 415.183 473.6 419.571C473.6 419.571 472.138 438.164 469.633 447.357C469.633 447.357 471.303 466.577 472.765 472.845C474.226 479.113 472.973 490.812 472.973 490.812C472.973 490.812 473.809 491.23 475.27 491.439C476.523 491.648 478.402 468.458 476.732 464.07C475.061 459.683 474.853 441.507 476.105 436.075C477.358 430.643 478.193 414.974 479.446 412.467C480.699 409.751 478.402 408.08 478.402 408.08L476.732 409.751Z" fill="#160A5B"/>
  <path d="M466.712 283.355C466.712 283.355 459.613 287.534 459.195 296.1L464.206 295.473C464.415 295.473 463.789 285.862 466.712 283.355Z" fill="#160A5B"/>
  <path d="M458.989 415.603C474.44 417.692 483.418 411.425 483.418 411.425C483.627 409.127 483.836 407.873 483.836 407.873L460.66 402.232L438.945 406.202C438.945 406.202 438.945 413.096 439.572 422.08C443.33 422.915 447.715 413.723 447.715 413.723L458.363 415.394C458.363 415.394 443.539 413.514 458.989 415.603Z" fill="#160A5B"/>
  <path d="M441.875 406.827C441.875 406.827 474.446 424.167 492.82 399.306C493.446 398.679 493.655 397.634 493.655 396.799L493.864 390.531C493.864 389.696 494.073 389.069 494.282 388.233C494.908 386.771 495.117 385.099 494.908 383.428C494.073 376.534 492.194 357.522 491.776 352.299C491.358 345.823 496.578 321.17 502.842 310.724C509.106 300.487 496.787 275.208 496.787 275.208C496.787 275.208 493.864 269.358 486.765 270.612C486.765 270.612 492.82 275.626 489.062 280.222C485.095 284.609 474.237 287.534 474.237 287.534C474.237 287.534 453.985 295.891 446.259 307.59C446.259 307.59 443.545 313.858 442.501 322.006C441.666 330.154 441.04 350.21 440.413 352.926C439.787 355.642 437.281 374.653 437.281 375.489C437.908 376.743 441.875 406.827 441.875 406.827Z" fill="#453C9E"/>
  <path d="M490.111 274.581C490.737 273.328 490.737 271.865 490.319 270.821C489.484 270.612 488.44 270.612 487.188 270.821C487.188 270.821 489.275 272.492 490.111 274.581Z" fill="url(#paint21_linear_3984_51988)"/>
  <path d="M451.889 410.798C451.889 410.798 475.9 358.777 476.527 339.138C477.153 320.127 444.582 374.864 444.582 374.864L441.867 406.828C441.867 406.828 448.131 409.962 451.889 410.798Z" fill="#24126A"/>
  <path d="M494.28 383.01C494.071 383.637 493.863 384.473 493.863 385.309L493.654 391.367C493.654 392.203 493.236 393.248 492.819 393.874C474.445 418.527 442.082 401.395 442.082 401.395C442.082 401.395 439.159 379.668 438.324 372.773C438.115 374.445 437.906 375.698 437.906 375.907C437.906 376.743 442.082 407.036 442.082 407.036C442.082 407.036 474.654 424.376 493.027 399.515C493.654 398.888 493.863 397.844 493.863 397.008L494.071 390.74C494.071 389.905 494.28 389.278 494.489 388.442C495.115 386.98 495.324 385.309 495.115 383.637C495.115 383.01 494.907 381.966 494.907 381.13C494.698 381.757 494.698 382.384 494.28 383.01Z" fill="url(#paint22_linear_3984_51988)"/>
  <path d="M503.055 306.127C496.582 316.364 491.362 341.016 491.989 347.284C491.989 347.911 492.197 348.537 492.197 349.582C492.824 340.599 497.626 320.124 503.263 310.932C504.934 308.007 505.351 304.038 504.725 299.65C504.725 302.157 504.099 304.247 503.055 306.127Z" fill="url(#paint23_linear_3984_51988)"/>
  <path d="M446.249 346.031C447.293 341.643 448.128 337.465 448.546 333.078C449.172 325.557 452.304 313.022 465.876 316.573C485.085 321.587 474.645 348.12 472.14 352.716C469.634 357.312 459.403 378.204 458.777 379.458C458.359 380.502 442.7 406.408 437.271 412.467C436.854 413.094 436.018 413.094 435.601 412.467C433.722 410.587 429.755 406.199 429.337 403.484C428.919 400.141 432.678 388.65 432.678 388.65C432.678 388.65 442.491 360.028 443.326 358.775C443.744 357.73 444.579 352.925 446.249 346.031Z" fill="#4846A5"/>
  <path d="M467.135 283.983C467.135 283.983 465.882 280.432 462.332 279.596C458.783 278.969 456.904 277.716 456.695 276.462C456.486 275.209 456.486 273.537 455.86 271.448C455.233 269.359 454.816 264.554 454.816 264.345C454.816 264.136 452.31 263.091 452.102 262.047C452.102 260.793 453.772 256.824 453.563 256.406C453.354 255.988 452.102 253.272 452.519 251.392C452.937 249.303 453.354 246.587 454.607 244.08C455.86 241.782 464.629 227.366 483.42 236.767C502.629 246.378 486.344 261.629 487.388 272.493C487.388 272.493 489.058 275 485.508 278.551C482.168 282.312 472.563 282.312 467.135 283.983Z" fill="#FCD1C5"/>
  <path d="M485.71 278.551C489.26 274.999 487.59 272.492 487.59 272.492C487.381 271.03 487.59 269.359 488.007 267.687L480.073 268.523C480.073 268.523 469.425 257.241 469.842 262.882C470.26 268.523 467.337 269.15 467.337 269.15L469.425 272.284C470.051 273.119 469.633 273.955 469.007 274.791C465.249 280.014 457.523 277.715 457.523 277.715C458.359 278.551 460.029 278.969 462.326 279.596C465.875 280.222 467.128 283.983 467.128 283.983C472.557 282.312 482.161 282.312 485.71 278.551Z" fill="#E2B1A6"/>
  <path d="M454.398 238.438C454.398 238.438 452.728 242.408 454.816 244.288C456.904 246.168 458.783 247.84 458.783 247.84L458.365 252.854C458.365 253.689 458.365 254.316 458.783 254.943L461.288 259.539C461.706 260.375 461.915 261.419 461.915 262.464L461.706 264.553C461.706 265.18 462.123 265.807 462.75 265.807L463.376 266.016C464.003 266.225 464.629 265.807 464.838 264.971L465.464 262.046C465.464 262.046 467.135 259.957 470.058 262.882L472.772 264.344C473.607 264.762 474.233 265.389 474.442 266.225C475.069 268.523 476.53 273.119 477.783 273.955C479.453 274.999 486.552 272.283 487.596 270.821C488.64 269.358 491.772 259.33 493.442 254.525C495.322 249.72 495.322 237.603 480.915 233.215C466.508 228.828 456.695 234.26 454.398 238.438Z" fill="#AA8383"/>
  <path d="M487.178 270.821C488.222 269.359 491.354 259.331 493.025 254.526C493.025 254.526 487.178 257.868 479.662 258.286C472.354 258.704 458.365 249.303 458.365 249.303L458.156 253.063C458.156 253.899 458.156 254.526 458.574 255.152L461.079 259.749C461.497 260.584 461.706 261.629 461.706 262.674L461.497 264.763C461.497 265.39 461.914 266.016 462.541 266.016L463.167 266.225C463.794 266.434 464.42 266.016 464.629 265.181L465.255 262.256C465.255 262.256 466.925 260.167 469.849 263.091L473.816 265.181C473.816 265.181 475.695 273.12 477.365 274.164C479.244 275.209 486.343 272.284 487.178 270.821Z" fill="#936D6D"/>
  <path d="M487.591 271.447C487.591 271.447 493.02 275.417 489.888 280.222C486.547 285.027 465.459 291.921 464.206 293.175C464.206 293.175 463.998 285.654 466.921 283.356C466.921 283.356 482.998 281.684 485.712 277.924C488.218 274.163 487.591 271.447 487.591 271.447Z" fill="#F0F6FF"/>
  <path d="M487.6 271.447C487.6 271.447 488.435 274.163 485.512 277.924C483.424 280.849 473.82 282.52 469.227 283.147C469.227 283.147 470.897 284.191 473.194 289.205C479.875 286.489 487.809 282.938 489.688 280.222C493.029 275.417 487.6 271.447 487.6 271.447Z" fill="#C4CCD6"/>
  <path d="M490.098 287.533C490.098 287.533 480.494 291.921 475.901 294.01C471.307 295.89 466.087 298.606 466.087 298.606L464.417 296.726L461.911 301.113C461.911 301.113 454.604 304.665 451.054 308.007C447.505 311.35 444.582 315.737 444.164 316.782C444.164 316.782 453.769 306.127 461.076 303.202L462.955 302.366L464.208 298.815L465.67 300.695C466.087 300.904 487.175 290.458 490.098 287.533Z" fill="#24126A"/>
  <path d="M418.562 403.275C418.562 403.275 416.682 409.961 416.891 411.632C417.1 413.304 420.023 417.064 421.902 417.9C423.781 418.735 423.155 416.228 423.781 414.766C424.408 413.304 424.617 410.17 424.617 410.17L418.562 403.275Z" fill="#FCD1C5"/>
  <path d="M424.617 410.17L418.562 403.275C418.562 403.275 418.144 404.738 417.727 406.409C417.727 406.409 419.814 411.632 423.99 414.139C424.408 412.468 424.617 410.17 424.617 410.17Z" fill="#E2B1A6"/>
  <path d="M417.938 403.693C417.938 403.693 419.608 411.214 425.454 412.468L424.201 404.32C424.201 404.32 419.399 402.439 419.19 402.439C418.981 402.439 417.938 403.693 417.938 403.693Z" fill="#4846A5"/>
  <path d="M462.627 321.381C466.803 338.303 451.144 362.747 448.638 370.059C446.133 377.371 422.748 410.589 422.748 410.798C422.539 411.007 422.539 411.216 422.539 411.216C422.957 411.634 423.374 412.052 423.792 412.261C424.418 412.47 424.001 412.47 424.627 412.679C425.045 412.887 425.462 412.678 425.88 412.261C431.1 406.202 446.759 380.296 447.385 379.251C448.012 377.998 458.243 357.106 460.748 352.51C462.627 348.749 469.726 330.782 462.627 321.381Z" fill="url(#paint24_linear_3984_51988)"/>
  <defs>
    <linearGradient id="paint0_linear_3984_51988" x1="199.064" y1="139.796" x2="504.091" y2="139.796" gradientUnits="userSpaceOnUse">
      <stop stop-color="#42E8E0"/>
      <stop offset="0.1055" stop-color="#37B6BF"/>
      <stop offset="0.2197" stop-color="#2C87A1"/>
      <stop offset="0.338" stop-color="#235F87"/>
      <stop offset="0.4587" stop-color="#1C3F72"/>
      <stop offset="0.5824" stop-color="#162561"/>
      <stop offset="0.7105" stop-color="#121355"/>
      <stop offset="0.8458" stop-color="#10084E"/>
      <stop offset="1" stop-color="#0F054C"/>
    </linearGradient>
    <linearGradient id="paint1_linear_3984_51988" x1="178.884" y1="151.106" x2="483.91" y2="151.106" gradientUnits="userSpaceOnUse">
      <stop stop-color="#42E8E0"/>
      <stop offset="0.1055" stop-color="#37B6BF"/>
      <stop offset="0.2197" stop-color="#2C87A1"/>
      <stop offset="0.338" stop-color="#235F87"/>
      <stop offset="0.4587" stop-color="#1C3F72"/>
      <stop offset="0.5824" stop-color="#162561"/>
      <stop offset="0.7105" stop-color="#121355"/>
      <stop offset="0.8458" stop-color="#10084E"/>
      <stop offset="1" stop-color="#0F054C"/>
    </linearGradient>
    <linearGradient id="paint2_linear_3984_51988" x1="321.014" y1="282.933" x2="232.288" y2="304.575" gradientUnits="userSpaceOnUse">
      <stop stop-color="#5761D7"/>
      <stop offset="0.1779" stop-color="#5C66D9"/>
      <stop offset="0.3876" stop-color="#6A73DF"/>
      <stop offset="0.6134" stop-color="#8289E8"/>
      <stop offset="0.849" stop-color="#A3A7F5"/>
      <stop offset="1" stop-color="#BCBEFF"/>
    </linearGradient>
    <linearGradient id="paint3_linear_3984_51988" x1="321.672" y1="275.009" x2="419.89" y2="275.009" gradientUnits="userSpaceOnUse">
      <stop stop-color="#5761D7"/>
      <stop offset="0.1779" stop-color="#5C66D9"/>
      <stop offset="0.3876" stop-color="#6A73DF"/>
      <stop offset="0.6134" stop-color="#8289E8"/>
      <stop offset="0.849" stop-color="#A3A7F5"/>
      <stop offset="1" stop-color="#BCBEFF"/>
    </linearGradient>
    <linearGradient id="paint4_linear_3984_51988" x1="310.605" y1="272.893" x2="287.635" y2="250.702" gradientUnits="userSpaceOnUse">
      <stop stop-color="#5761D7"/>
      <stop offset="0.1779" stop-color="#5C66D9"/>
      <stop offset="0.3876" stop-color="#6A73DF"/>
      <stop offset="0.6134" stop-color="#8289E8"/>
      <stop offset="0.849" stop-color="#A3A7F5"/>
      <stop offset="1" stop-color="#BCBEFF"/>
    </linearGradient>
    <linearGradient id="paint5_linear_3984_51988" x1="322.869" y1="295.088" x2="408.152" y2="295.088" gradientUnits="userSpaceOnUse">
      <stop stop-color="#5761D7"/>
      <stop offset="0.1779" stop-color="#5C66D9"/>
      <stop offset="0.3876" stop-color="#6A73DF"/>
      <stop offset="0.6134" stop-color="#8289E8"/>
      <stop offset="0.849" stop-color="#A3A7F5"/>
      <stop offset="1" stop-color="#BCBEFF"/>
    </linearGradient>
    <linearGradient id="paint6_linear_3984_51988" x1="310.934" y1="304.69" x2="327.008" y2="304.69" gradientUnits="userSpaceOnUse">
      <stop stop-color="#5761D7"/>
      <stop offset="0.1779" stop-color="#5C66D9"/>
      <stop offset="0.3876" stop-color="#6A73DF"/>
      <stop offset="0.6134" stop-color="#8289E8"/>
      <stop offset="0.849" stop-color="#A3A7F5"/>
      <stop offset="1" stop-color="#BCBEFF"/>
    </linearGradient>
    <linearGradient id="paint7_linear_3984_51988" x1="316.15" y1="288.724" x2="428.55" y2="288.724" gradientUnits="userSpaceOnUse">
      <stop stop-color="#C0BFF6"/>
      <stop offset="0.2938" stop-color="#C5C4F7"/>
      <stop offset="0.6399" stop-color="#D3D2F9"/>
      <stop offset="1" stop-color="#E9E9FD"/>
    </linearGradient>
    <linearGradient id="paint8_linear_3984_51988" x1="260.029" y1="188.764" x2="302.558" y2="188.764" gradientUnits="userSpaceOnUse">
      <stop stop-color="#E9E9FD"/>
      <stop offset="0.3601" stop-color="#D3D2F9"/>
      <stop offset="0.7062" stop-color="#C5C4F7"/>
      <stop offset="1" stop-color="#C0BFF6"/>
    </linearGradient>
    <linearGradient id="paint9_linear_3984_51988" x1="352.732" y1="118.831" x2="312.314" y2="222.776" gradientUnits="userSpaceOnUse">
      <stop offset="0.3548" stop-color="#BCBEFF"/>
      <stop offset="0.4438" stop-color="#B5B8FC"/>
      <stop offset="0.5698" stop-color="#A3A7F5"/>
      <stop offset="0.6975" stop-color="#898FEB"/>
      <stop offset="0.8593" stop-color="#6069DB"/>
      <stop offset="0.8925" stop-color="#5761D7"/>
    </linearGradient>
    <linearGradient id="paint10_linear_3984_51988" x1="331.274" y1="229.695" x2="373.802" y2="229.695" gradientUnits="userSpaceOnUse">
      <stop stop-color="#E9E9FD"/>
      <stop offset="0.3601" stop-color="#D3D2F9"/>
      <stop offset="0.7062" stop-color="#C5C4F7"/>
      <stop offset="1" stop-color="#C0BFF6"/>
    </linearGradient>
    <linearGradient id="paint11_linear_3984_51988" x1="110.849" y1="239.584" x2="400.568" y2="239.584" gradientUnits="userSpaceOnUse">
      <stop stop-color="#42E8E0"/>
      <stop offset="0.1507" stop-color="#43E3E0"/>
      <stop offset="0.3285" stop-color="#45D5DF"/>
      <stop offset="0.5199" stop-color="#49BDDD"/>
      <stop offset="0.7209" stop-color="#4E9CDB"/>
      <stop offset="0.9274" stop-color="#5472D8"/>
      <stop offset="1" stop-color="#5761D7"/>
    </linearGradient>
    <linearGradient id="paint12_linear_3984_51988" x1="67.9449" y1="259.513" x2="357.665" y2="259.513" gradientUnits="userSpaceOnUse">
      <stop offset="0.3548" stop-color="#BCBEFF"/>
      <stop offset="0.4438" stop-color="#B5B8FC"/>
      <stop offset="0.5698" stop-color="#A3A7F5"/>
      <stop offset="0.6975" stop-color="#898FEB"/>
      <stop offset="0.8593" stop-color="#6069DB"/>
      <stop offset="0.8925" stop-color="#5761D7"/>
    </linearGradient>
    <linearGradient id="paint13_linear_3984_51988" x1="110.849" y1="232.304" x2="400.568" y2="232.304" gradientUnits="userSpaceOnUse">
      <stop stop-color="#E9E9FD"/>
      <stop offset="0.3601" stop-color="#D3D2F9"/>
      <stop offset="0.7062" stop-color="#C5C4F7"/>
      <stop offset="1" stop-color="#C0BFF6"/>
    </linearGradient>
    <linearGradient id="paint14_linear_3984_51988" x1="305.867" y1="234.852" x2="184.974" y2="234.852" gradientUnits="userSpaceOnUse">
      <stop stop-color="#5761D7"/>
      <stop offset="0.1779" stop-color="#5C66D9"/>
      <stop offset="0.3876" stop-color="#6A73DF"/>
      <stop offset="0.6134" stop-color="#8289E8"/>
      <stop offset="0.849" stop-color="#A3A7F5"/>
      <stop offset="1" stop-color="#BCBEFF"/>
    </linearGradient>
    <linearGradient id="paint15_linear_3984_51988" x1="265.248" y1="230.82" x2="144.291" y2="230.82" gradientUnits="userSpaceOnUse">
      <stop stop-color="#C0BFF6"/>
      <stop offset="0.2938" stop-color="#C5C4F7"/>
      <stop offset="0.6399" stop-color="#D3D2F9"/>
      <stop offset="1" stop-color="#E9E9FD"/>
    </linearGradient>
    <linearGradient id="paint16_linear_3984_51988" x1="273.095" y1="221.507" x2="242.134" y2="221.507" gradientUnits="userSpaceOnUse">
      <stop stop-color="#C0BFF6"/>
      <stop offset="0.2938" stop-color="#C5C4F7"/>
      <stop offset="0.6399" stop-color="#D3D2F9"/>
      <stop offset="1" stop-color="#E9E9FD"/>
    </linearGradient>
    <linearGradient id="paint17_linear_3984_51988" x1="270.676" y1="215.925" x2="185.078" y2="215.925" gradientUnits="userSpaceOnUse">
      <stop stop-color="#C0BFF6"/>
      <stop offset="0.2938" stop-color="#C5C4F7"/>
      <stop offset="0.6399" stop-color="#D3D2F9"/>
      <stop offset="1" stop-color="#E9E9FD"/>
    </linearGradient>
    <linearGradient id="paint18_linear_3984_51988" x1="270.686" y1="237.891" x2="255.987" y2="237.891" gradientUnits="userSpaceOnUse">
      <stop stop-color="#5761D7"/>
      <stop offset="0.1779" stop-color="#5C66D9"/>
      <stop offset="0.3876" stop-color="#6A73DF"/>
      <stop offset="0.6134" stop-color="#8289E8"/>
      <stop offset="0.849" stop-color="#A3A7F5"/>
      <stop offset="1" stop-color="#BCBEFF"/>
    </linearGradient>
    <linearGradient id="paint19_linear_3984_51988" x1="92.776" y1="192.403" x2="53.7105" y2="192.403" gradientUnits="userSpaceOnUse">
      <stop stop-color="#5761D7"/>
      <stop offset="0.0725775" stop-color="#5472D8"/>
      <stop offset="0.2791" stop-color="#4E9CDB"/>
      <stop offset="0.4801" stop-color="#49BDDD"/>
      <stop offset="0.6715" stop-color="#45D5DF"/>
      <stop offset="0.8493" stop-color="#43E3E0"/>
      <stop offset="1" stop-color="#42E8E0"/>
    </linearGradient>
    <linearGradient id="paint20_linear_3984_51988" x1="461.856" y1="460.862" x2="485.396" y2="460.862" gradientUnits="userSpaceOnUse">
      <stop stop-color="#5761D7"/>
      <stop offset="0.0725775" stop-color="#5472D8"/>
      <stop offset="0.2791" stop-color="#4E9CDB"/>
      <stop offset="0.4801" stop-color="#49BDDD"/>
      <stop offset="0.6715" stop-color="#45D5DF"/>
      <stop offset="0.8493" stop-color="#43E3E0"/>
      <stop offset="1" stop-color="#42E8E0"/>
    </linearGradient>
    <linearGradient id="paint21_linear_3984_51988" x1="487.291" y1="272.66" x2="490.655" y2="272.66" gradientUnits="userSpaceOnUse">
      <stop stop-color="#5761D7"/>
      <stop offset="0.0725775" stop-color="#5472D8"/>
      <stop offset="0.2791" stop-color="#4E9CDB"/>
      <stop offset="0.4801" stop-color="#49BDDD"/>
      <stop offset="0.6715" stop-color="#45D5DF"/>
      <stop offset="0.8493" stop-color="#43E3E0"/>
      <stop offset="1" stop-color="#42E8E0"/>
    </linearGradient>
    <linearGradient id="paint22_linear_3984_51988" x1="437.801" y1="392.76" x2="495.243" y2="392.76" gradientUnits="userSpaceOnUse">
      <stop stop-color="#5761D7"/>
      <stop offset="0.0725775" stop-color="#5472D8"/>
      <stop offset="0.2791" stop-color="#4E9CDB"/>
      <stop offset="0.4801" stop-color="#49BDDD"/>
      <stop offset="0.6715" stop-color="#45D5DF"/>
      <stop offset="0.8493" stop-color="#43E3E0"/>
      <stop offset="1" stop-color="#42E8E0"/>
    </linearGradient>
    <linearGradient id="paint23_linear_3984_51988" x1="491.875" y1="324.581" x2="504.962" y2="324.581" gradientUnits="userSpaceOnUse">
      <stop stop-color="#5761D7"/>
      <stop offset="0.0725775" stop-color="#5472D8"/>
      <stop offset="0.2791" stop-color="#4E9CDB"/>
      <stop offset="0.4801" stop-color="#49BDDD"/>
      <stop offset="0.6715" stop-color="#45D5DF"/>
      <stop offset="0.8493" stop-color="#43E3E0"/>
      <stop offset="1" stop-color="#42E8E0"/>
    </linearGradient>
    <linearGradient id="paint24_linear_3984_51988" x1="422.526" y1="367.125" x2="465.718" y2="367.125" gradientUnits="userSpaceOnUse">
      <stop stop-color="#5761D7"/>
      <stop offset="0.0725775" stop-color="#5472D8"/>
      <stop offset="0.2791" stop-color="#4E9CDB"/>
      <stop offset="0.4801" stop-color="#49BDDD"/>
      <stop offset="0.6715" stop-color="#45D5DF"/>
      <stop offset="0.8493" stop-color="#43E3E0"/>
      <stop offset="1" stop-color="#42E8E0"/>
    </linearGradient>
  </defs>
</svg>
